<svg width="23" height="24" viewBox="0 0 23 24" fill="none" xmlns="http://www.w3.org/2000/svg">
<path d="M8.51579 19.216V18.7098H4.44344C3.79567 18.709 3.17468 18.4688 2.71663 18.0418C2.25859 17.6148 2.00089 17.0358 2.00002 16.432V16.0453C1.99789 15.5636 2.14078 15.0911 2.41243 14.6815C2.68407 14.2718 3.07358 13.9415 3.53666 13.7279C3.74374 13.6314 3.92083 13.487 4.05105 13.3085C4.18127 13.1301 4.26028 12.9235 4.28054 12.7085L4.76488 7.73776C4.91602 6.17037 5.69075 4.7124 6.93672 3.6506C8.18269 2.5888 9.80972 2 11.4978 2C13.186 2 14.813 2.5888 16.0589 3.6506C17.3049 4.7124 18.0797 6.17037 18.2308 7.73776L18.7151 12.7085C18.7371 12.9229 18.8169 13.1287 18.9471 13.3066C19.0774 13.4845 19.2539 13.6288 19.4601 13.7259C19.9235 13.9396 20.3135 14.27 20.5857 14.6798C20.8579 15.0896 21.0014 15.5623 21 16.0442V16.431C20.9994 17.0349 20.7418 17.614 20.2837 18.041C19.8256 18.4681 19.2044 18.7083 18.5566 18.7088H14.4886V19.216C14.4886 19.9544 14.1739 20.6625 13.6139 21.1846C13.0538 21.7067 12.2942 22 11.5022 22C10.7101 22 9.95054 21.7067 9.39048 21.1846C8.83042 20.6625 8.51579 19.9544 8.51579 19.216ZM10.1447 19.216C10.1447 19.5516 10.2877 19.8735 10.5423 20.1108C10.7969 20.3481 11.1422 20.4814 11.5022 20.4814C11.8622 20.4814 12.2075 20.3481 12.462 20.1108C12.7166 19.8735 12.8596 19.5516 12.8596 19.216V18.7098H10.1447V19.216ZM6.39273 7.87747L5.90948 12.8462C5.86465 13.3192 5.6902 13.7736 5.40287 14.1657C5.11554 14.5578 4.72497 14.8746 4.2686 15.0855C4.07622 15.1738 3.91429 15.3107 3.80121 15.4805C3.68814 15.6504 3.62846 15.8464 3.62896 16.0463V16.433C3.62954 16.6341 3.71557 16.8268 3.86822 16.9689C4.02087 17.111 4.2277 17.191 4.44344 17.1913H18.5609C18.7768 17.191 18.9838 17.1109 19.1365 16.9686C19.2892 16.8262 19.3751 16.6333 19.3754 16.432V16.0453C19.3761 15.8458 19.3169 15.6502 19.2044 15.4806C19.0919 15.3109 18.9307 15.1741 18.739 15.0855C18.2821 14.8749 17.8909 14.5583 17.603 14.1662C17.3151 13.774 17.1401 13.3195 17.0949 12.8462L16.6127 7.87747C16.4965 6.6889 15.9079 5.58376 14.9624 4.77904C14.017 3.97432 12.783 3.52816 11.5027 3.52816C10.2225 3.52816 8.98847 3.97432 8.043 4.77904C7.09754 5.58376 6.50893 6.6889 6.39273 7.87747Z" fill="#141124"/>
</svg>
