<svg width="24" height="24" viewBox="0 0 24 24" fill="none" xmlns="http://www.w3.org/2000/svg">
<path d="M16.8008 2C14.877 2 12.8405 2.42412 12 3.33581C11.1595 2.42407 9.12308 2 7.19921 2C4.6951 2 2 2.71839 2 4.29547V21.4934V21.4971C2 21.7749 2.17837 22 2.39841 22C2.4141 22 2.42952 21.9985 2.44474 21.9963H11.9535C11.9556 21.9966 11.9576 21.9971 11.9597 21.9974C11.9729 21.9991 11.9864 22 12 22C12.0136 22 12.027 21.9991 12.0403 21.9974C12.0424 21.9972 12.0444 21.9966 12.0465 21.9963H21.5553C21.5705 21.9985 21.5859 22 21.6016 22C21.8216 22 22 21.7749 22 21.4971C22 21.4965 22 21.496 22 21.4954C22 21.4947 22 21.4941 22 21.4934V4.29547C22 2.71839 19.3049 2 16.8008 2ZM3.31765 20.9906C3.47231 20.8996 3.6696 20.8042 3.92068 20.7107C4.7914 20.3861 5.95574 20.2074 7.19921 20.2074C8.44268 20.2074 9.60703 20.3861 10.4777 20.7107C10.7288 20.8042 10.9261 20.8996 11.0808 20.9906H3.31765ZM11.6016 20.1979C10.6162 19.52 8.86448 19.2017 7.19921 19.2017C5.53395 19.2017 3.78219 19.52 2.79681 20.1979V4.29547C2.79681 4.22266 2.99626 3.85411 3.91753 3.5101C4.78861 3.18485 5.95407 3.00573 7.19921 3.00573C8.44436 3.00573 9.60982 3.18485 10.4809 3.5101C11.4022 3.85416 11.6016 4.22266 11.6016 4.29547V20.1979ZM12.9193 20.9906C13.0739 20.8996 13.2712 20.8042 13.5223 20.7107C14.393 20.3861 15.5574 20.2074 16.8008 20.2074C18.0443 20.2074 19.2086 20.3861 20.0794 20.7107C20.3304 20.8042 20.5277 20.8996 20.6824 20.9906H12.9193ZM21.2032 20.1979C20.2178 19.52 18.4661 19.2017 16.8008 19.2017C15.1356 19.2017 13.3838 19.52 12.3984 20.1979V4.29547C12.3984 4.22266 12.5979 3.85411 13.5191 3.5101C14.3902 3.18485 15.5557 3.00573 16.8008 3.00573C18.046 3.00573 19.2114 3.18485 20.0825 3.5101C21.0038 3.85416 21.2032 4.22266 21.2032 4.29547V20.1979Z" fill="#333988"/>
<path d="M6.01515 5.87452C6.39965 5.83705 6.79814 5.81804 7.19961 5.81804C8.33344 5.81804 9.42268 5.97056 10.2667 6.24749C10.3003 6.2585 10.334 6.26378 10.3672 6.26378C10.5442 6.26378 10.7059 6.11368 10.7525 5.88729C10.8079 5.61851 10.6801 5.34394 10.4671 5.2741C9.5595 4.9763 8.39906 4.81232 7.19953 4.81232C6.7777 4.81232 6.35853 4.83228 5.95371 4.87176C5.73435 4.89313 5.57021 5.1349 5.58714 5.41183C5.60419 5.68871 5.79602 5.89639 6.01515 5.87452Z" fill="#333988"/>
<path d="M4.03106 6.26386C4.06424 6.26386 4.09795 6.25858 4.13153 6.24757C4.30986 6.18904 4.50193 6.13533 4.70249 6.08776C4.91875 6.03647 5.0611 5.77362 5.0205 5.50072C4.97986 5.22776 4.77157 5.04799 4.5554 5.09933C4.33703 5.15112 4.12699 5.20996 3.93113 5.27418C3.71815 5.34402 3.59038 5.61859 3.64572 5.88737C3.69237 6.11366 3.854 6.26386 4.03106 6.26386Z" fill="#333988"/>
<path d="M10.4662 7.87499C9.55869 7.57719 8.39825 7.41321 7.19865 7.41321C5.99904 7.41321 4.8386 7.57719 3.93107 7.87499C3.71812 7.94489 3.59035 8.2194 3.64573 8.48818C3.70111 8.75696 3.91864 8.91818 4.13155 8.84833C4.9755 8.5714 6.06474 8.41889 7.19865 8.41889C8.33255 8.41889 9.4218 8.5714 10.2657 8.84833C10.2994 8.85934 10.3331 8.86462 10.3663 8.86462C10.5433 8.86462 10.7049 8.71452 10.7516 8.48818C10.8069 8.2194 10.6792 7.94489 10.4662 7.87499Z" fill="#333988"/>
<path d="M10.4662 10.4745C9.55869 10.1767 8.39825 10.0128 7.19865 10.0128C5.99904 10.0128 4.8386 10.1767 3.93107 10.4745C3.71812 10.5444 3.59035 10.8189 3.64573 11.0877C3.70111 11.3565 3.91864 11.5177 4.13155 11.4479C4.9755 11.171 6.06474 11.0184 7.19865 11.0184C8.33255 11.0184 9.4218 11.171 10.2657 11.4479C10.2994 11.4589 10.3331 11.4642 10.3663 11.4642C10.5433 11.4642 10.7049 11.3141 10.7516 11.0877C10.8069 10.8189 10.6792 10.5444 10.4662 10.4745Z" fill="#333988"/>
<path d="M4.13153 14.0489C4.9756 13.772 6.0648 13.6194 7.19863 13.6194C8.33246 13.6194 9.4217 13.772 10.2657 14.0489C10.2993 14.0599 10.333 14.0652 10.3662 14.0652C10.5433 14.0652 10.7049 13.9151 10.7515 13.6887C10.807 13.4198 10.6792 13.1453 10.4662 13.0755C9.55864 12.7777 8.3982 12.6137 7.19867 12.6137C5.99915 12.6137 4.83871 12.7777 3.9311 13.0755C3.71815 13.1453 3.59038 13.4199 3.64572 13.6887C3.70105 13.9575 3.91862 14.1188 4.13153 14.0489Z" fill="#333988"/>
<path d="M10.4662 15.6764C9.55869 15.3786 8.39825 15.2147 7.19865 15.2147C5.99904 15.2147 4.8386 15.3786 3.93107 15.6764C3.71812 15.7463 3.59035 16.0209 3.64573 16.2896C3.70111 16.5584 3.91864 16.7197 4.13155 16.6498C4.9755 16.3729 6.06474 16.2203 7.19865 16.2203C8.33255 16.2203 9.4218 16.3729 10.2657 16.6498C10.2994 16.6608 10.3331 16.6661 10.3663 16.6661C10.5433 16.6661 10.7049 16.516 10.7516 16.2896C10.8069 16.0209 10.6792 15.7462 10.4662 15.6764Z" fill="#333988"/>
<path d="M13.7332 6.24749C14.5773 5.97056 15.6665 5.81804 16.8003 5.81804C17.9341 5.81804 19.0234 5.97056 19.8674 6.24749C19.901 6.2585 19.9347 6.26378 19.9679 6.26378C20.1449 6.26378 20.3066 6.11368 20.3532 5.88729C20.4086 5.61851 20.2808 5.34394 20.0678 5.2741C19.1602 4.9763 17.9998 4.81232 16.8002 4.81232C15.6007 4.81232 14.4403 4.9763 13.5327 5.2741C13.3197 5.34394 13.1919 5.61851 13.2473 5.88729C13.3027 6.15607 13.5203 6.31739 13.7332 6.24749Z" fill="#333988"/>
<path d="M20.0678 7.87511C19.1603 7.57731 17.9998 7.41333 16.8002 7.41333C15.6006 7.41333 14.4402 7.57731 13.5326 7.87511C13.3197 7.94501 13.1919 8.21952 13.2473 8.4883C13.3027 8.75708 13.5202 8.9183 13.7331 8.84845C14.5771 8.57153 15.6663 8.41901 16.8002 8.41901C17.9341 8.41901 19.0234 8.57153 19.8673 8.84845C19.9009 8.85947 19.9346 8.86475 19.9678 8.86475C20.1449 8.86475 20.3065 8.71464 20.3531 8.4883C20.4085 8.21952 20.2807 7.94491 20.0678 7.87511Z" fill="#333988"/>
<path d="M20.0678 10.4745C19.1603 10.1767 17.9998 10.0128 16.8002 10.0128C15.6006 10.0128 14.4402 10.1767 13.5326 10.4745C13.3197 10.5444 13.1919 10.8189 13.2473 11.0877C13.3027 11.3565 13.5202 11.5178 13.7331 11.4479C14.5771 11.171 15.6663 11.0184 16.8002 11.0184C17.9341 11.0184 19.0234 11.171 19.8673 11.4479C19.9009 11.4589 19.9346 11.4642 19.9678 11.4642C20.1449 11.4642 20.3065 11.3141 20.3531 11.0877C20.4085 10.8189 20.2807 10.5444 20.0678 10.4745Z" fill="#333988"/>
<path d="M13.7331 14.0489C14.5772 13.772 15.6664 13.6194 16.8002 13.6194C17.934 13.6194 19.0233 13.772 19.8673 14.0489C19.9009 14.0599 19.9346 14.0652 19.9678 14.0652C20.1448 14.0652 20.3065 13.9151 20.3531 13.6887C20.4085 13.4198 20.2808 13.1453 20.0678 13.0755C19.1602 12.7777 17.9998 12.6137 16.8002 12.6137C15.6007 12.6137 14.4403 12.7777 13.5327 13.0755C13.3197 13.1453 13.1919 13.4199 13.2473 13.6887C13.3026 13.9575 13.5201 14.1188 13.7331 14.0489Z" fill="#333988"/>
<path d="M20.0678 15.6764C19.1603 15.3786 17.9998 15.2147 16.8002 15.2147C15.6006 15.2147 14.4402 15.3786 13.5326 15.6764C13.3197 15.7463 13.1919 16.0209 13.2473 16.2896C13.3027 16.5584 13.5202 16.7197 13.7331 16.6498C14.5771 16.3729 15.6663 16.2203 16.8002 16.2203C17.9341 16.2203 19.0234 16.3729 19.8673 16.6498C19.9009 16.6608 19.9346 16.6661 19.9678 16.6661C20.1449 16.6661 20.3065 16.516 20.3531 16.2896C20.4085 16.0209 20.2807 15.7462 20.0678 15.6764Z" fill="#333988"/>
</svg>
