<svg width="154" height="154" viewBox="0 0 154 154" fill="none" xmlns="http://www.w3.org/2000/svg">
<path d="M53.2552 98.7929C53.2868 98.7929 53.35 98.7929 53.3816 98.7929C53.4132 98.7929 53.4764 98.7929 53.508 98.7929C77.2404 98.5401 73.7959 66.8758 73.7959 66.8758C72.8163 45.703 55.1197 45.8927 53.3816 45.9559C51.6436 45.8927 33.9469 45.703 32.9673 66.8758C32.9673 66.8758 29.5228 98.5717 53.2552 98.7929Z" fill="#AFAFAF"/>
<path d="M108.871 109.632C108.903 109.632 108.934 109.632 108.997 109.632C128.084 109.442 125.304 83.972 125.304 83.972C124.514 66.939 110.293 67.097 108.871 67.1602C107.481 67.097 93.2285 66.9706 92.4385 83.972C92.4385 83.972 89.6576 109.442 108.745 109.632C108.808 109.632 108.839 109.632 108.871 109.632Z" fill="#AFAFAF"/>
<path d="M143.948 135.355C143.79 129.825 142.748 126.001 137.091 122.462C129.602 117.754 121.259 113.709 121.259 113.709L114.623 134.755L110.736 123.726C117.562 114.214 110.262 113.74 108.966 113.709H108.934H108.903C107.607 113.709 100.307 114.183 107.133 123.726L103.246 134.755L96.6101 113.709C96.6101 113.709 94.1768 114.878 90.7955 116.711C90.0686 116.142 89.2786 115.573 88.3622 115.004C79.1031 109.19 68.7695 104.165 68.7695 104.165L60.5532 130.204L55.7499 116.553C64.1873 104.766 55.1494 104.197 53.5378 104.165C53.5378 104.165 53.5062 104.165 53.4746 104.165C53.443 104.165 53.443 104.165 53.4114 104.165C51.7997 104.165 42.7618 104.766 51.1993 116.553L46.3327 130.173L38.1165 104.165C38.1165 104.165 27.7829 109.19 18.5238 115.004C11.5399 119.397 10.2443 124.105 10.0547 130.931V135.166V154H53.3798H73.8257H96.7681H108.934H143.948V138.8V135.355Z" fill="#333988"/>
<path d="M87.415 47.9151C86.3406 50.2536 84.4761 53.1293 81.5056 54.583C80.526 55.057 80.7472 56.5106 81.8216 56.7002C85.0449 57.2059 89.6903 56.637 94.0197 53.3821L94.0829 53.4453C105.08 59.9236 119.459 58.4383 128.907 48.9896C140.126 37.7712 140.126 19.6322 128.907 8.41379C117.689 -2.8046 99.5498 -2.8046 88.3315 8.41379C77.5555 19.1898 77.1447 36.444 87.1306 47.6939L87.415 47.9151ZM91.776 30.3449C91.776 29.8077 92.1868 29.3969 92.724 29.3969H95.3153C95.3153 28.8281 95.3153 28.2593 95.3153 27.6905H92.724C92.1868 27.6905 91.776 27.2796 91.776 26.7424V24.6251C91.776 24.0879 92.1868 23.6771 92.724 23.6771H96.0105L96.1369 23.3611C97.0218 20.5486 98.5386 18.1153 100.909 16.3141C102.773 14.8604 104.922 14.0704 107.261 13.6912C110.547 13.154 113.739 13.628 116.836 14.8288C117.025 14.892 117.246 14.9868 117.404 15.1132C118.131 15.5556 118.352 16.0929 118.005 16.8829C117.657 17.7045 117.31 18.5577 116.93 19.3794C116.614 20.0746 116.172 20.3274 115.382 20.1378C114.339 19.885 113.328 19.569 112.253 19.3794C110.041 18.937 107.861 18.9053 105.712 19.7586C103.879 20.4854 102.742 21.8759 101.983 23.6455C101.983 23.6771 101.983 23.6771 101.983 23.7087H108.398C108.935 23.7087 109.346 24.1195 109.346 24.6567V26.774C109.346 27.3112 108.935 27.7221 108.398 27.7221H101.067C101.067 28.2909 101.067 28.8597 101.067 29.4285H108.398C108.935 29.4285 109.346 29.8393 109.346 30.3765V32.4938C109.346 33.031 108.935 33.4418 108.398 33.4418H101.699C102.52 35.7487 103.816 37.55 106.281 38.3084C108.272 38.9404 110.263 38.8772 112.253 38.4664C113.296 38.2452 114.308 37.9292 115.35 37.708C116.172 37.5184 116.583 37.7396 116.93 38.498C117.31 39.3196 117.657 40.1729 118.005 41.0261C118.321 41.7845 118.1 42.4166 117.31 42.7642C116.488 43.1434 115.635 43.4594 114.75 43.6806C111.432 44.597 108.082 44.6286 104.796 43.5542C100.814 42.2586 98.1594 39.5409 96.5477 35.7171C96.2317 34.9903 96.0421 34.2003 95.8209 33.4418H92.6924C92.1552 33.4418 91.7444 33.031 91.7444 32.4938V30.3449H91.776Z" fill="#F89077"/>
</svg>
