<svg width="154" height="154" viewBox="0 0 154 154" fill="none" xmlns="http://www.w3.org/2000/svg">
<g clip-path="url(#clip0_812_15564)">
<path d="M104.323 106.806H92.6614C99.7007 101.859 104.323 93.6916 104.323 84.4516V62.0968C104.323 57.2607 100.851 53.2219 96.268 52.3402C94.0077 46.3068 88.2327 42.2258 81.6629 42.2258H70.1352C58.8535 42.2258 49.678 51.4012 49.678 62.683V84.4516C49.678 93.6916 54.3005 101.859 61.3398 106.806H49.678C34.6134 106.806 22.3555 119.064 22.3555 134.129V154H131.646V134.129C131.646 119.064 119.388 106.806 104.323 106.806ZM54.6458 62.683C54.6458 54.141 61.5957 47.1936 70.1352 47.1936H81.6629C86.5511 47.1936 90.7936 50.5046 91.9784 55.2488L92.4503 57.1291H94.3877C97.1274 57.1291 99.3555 59.3571 99.3555 62.0968V74.0591C96.4717 73.0308 94.3877 70.2985 94.3877 67.0645V62.0968H88.0911L87.3534 63.2021C84.7056 67.1763 80.2719 69.5484 75.4979 69.5484H54.6458V62.683ZM54.6458 84.4516V74.5162H75.4979C80.8581 74.5162 85.9003 72.2981 89.4995 68.463C90.1055 73.8281 94.1443 78.155 99.3579 79.2181V84.4516C99.3579 96.7766 89.3306 106.806 77.0031 106.806C64.6757 106.806 54.6458 96.7766 54.6458 84.4516ZM49.678 149.032V134.129H44.7103V149.032H27.3232V134.129C27.3232 121.804 37.3506 111.774 49.678 111.774H52.1619L46.2006 119.723L56.4665 127.42L51.4466 137.462L68.7964 149.032H49.678ZM57.8475 135.761L62.7631 125.932L53.1555 118.729L58.3716 111.774H60.3761L73.2127 146.004L57.8475 135.761ZM65.6816 111.774H88.3196L77.0006 141.958L65.6816 111.774ZM93.6252 111.774H95.6297L100.846 118.729L91.2407 125.935L96.1562 135.763L80.791 146.007L93.6252 111.774ZM126.678 149.032H109.291V134.129H104.323V149.032H85.2049L102.557 137.462L97.5373 127.42L107.801 119.723L101.839 111.774H104.323C116.651 111.774 126.678 121.804 126.678 134.129V149.032Z" fill="#333988"/>
<path d="M141.579 64.5806C135.583 64.5806 130.566 68.8554 129.411 74.5161H126.676V79.4839H129.411C130.566 85.1446 135.58 89.4193 141.579 89.4193C148.427 89.4193 153.998 83.848 153.998 77C153.998 70.152 148.427 64.5806 141.579 64.5806ZM141.579 84.4516C137.471 84.4516 134.127 81.1083 134.127 77C134.127 72.8917 137.471 69.5484 141.579 69.5484C145.687 69.5484 149.031 72.8917 149.031 77C149.031 81.1083 145.687 84.4516 141.579 84.4516Z" fill="#F89077"/>
<path d="M121.71 74.5161H116.742V79.4839H121.71V74.5161Z" fill="#F89077"/>
<path d="M110.368 47.142L106.855 43.6293L103.343 47.142L106.855 50.6547L110.368 47.142Z" fill="#F89077"/>
<path d="M110.374 40.117L113.886 43.6292L115.821 41.6943C117.835 43.0306 120.195 43.7534 122.669 43.7534C125.987 43.7534 129.104 42.4618 131.449 40.117C136.29 35.2735 136.29 27.3946 131.449 22.5536C129.104 20.2088 125.987 18.9172 122.669 18.9172C119.35 18.9172 116.233 20.2088 113.888 22.5536C109.648 26.796 109.122 33.3634 112.311 38.1846L110.374 40.117ZM117.398 26.0658C118.804 24.6599 120.674 23.8849 122.666 23.8849C124.658 23.8849 126.529 24.6599 127.935 26.0658C130.841 28.9719 130.841 33.6987 127.935 36.6048C125.12 39.419 120.212 39.419 117.398 36.6048C114.492 33.6987 114.492 28.9719 117.398 26.0658Z" fill="#F89077"/>
<path d="M74.5175 24.5878V27.3226H79.4853V24.5878C85.146 23.4328 89.4207 18.4179 89.4207 12.4194C89.4207 5.57132 83.8494 0 77.0014 0C70.1534 0 64.582 5.57132 64.582 12.4194C64.582 18.4154 68.8568 23.4328 74.5175 24.5878ZM77.0014 4.96774C81.1097 4.96774 84.453 8.31103 84.453 12.4194C84.453 16.5277 81.1097 19.871 77.0014 19.871C72.8931 19.871 69.5498 16.5277 69.5498 12.4194C69.5498 8.31103 72.8931 4.96774 77.0014 4.96774Z" fill="#F89077"/>
<path d="M79.4834 32.2903H74.5156V37.2581H79.4834V32.2903Z" fill="#F89077"/>
<path d="M31.3346 43.7534C33.8085 43.7534 36.1682 43.0331 38.1826 41.6943L40.1175 43.6292L43.6297 40.117L41.6948 38.1821C44.8816 33.3633 44.3575 26.7935 40.1175 22.5511C37.7728 20.2063 34.6555 18.9147 31.3371 18.9147C28.0186 18.9147 24.9014 20.2063 22.5566 22.5511C17.7155 27.3946 17.7155 35.2734 22.5566 40.1145C24.8989 42.4618 28.0161 43.7534 31.3346 43.7534ZM26.0663 26.0657C27.4722 24.6599 29.3425 23.8849 31.3346 23.8849C33.3266 23.8849 35.197 24.6599 36.6029 26.0657C39.509 28.9719 39.509 33.6987 36.6029 36.6048C33.7886 39.419 28.8805 39.419 26.0663 36.6048C23.1602 33.6987 23.1602 28.9719 26.0663 26.0657Z" fill="#F89077"/>
<path d="M47.1397 50.6538L50.6523 47.1411L47.1397 43.6284L43.627 47.1411L47.1397 50.6538Z" fill="#F89077"/>
<path d="M37.2568 74.5161H32.2891V79.4839H37.2568V74.5161Z" fill="#F89077"/>
<path d="M27.3226 79.4839V74.5161H24.5878C23.4328 68.8554 18.4154 64.5806 12.4194 64.5806C5.57132 64.5806 0 70.152 0 77C0 83.848 5.57132 89.4193 12.4194 89.4193C18.4154 89.4193 23.4328 85.1446 24.5878 79.4839H27.3226ZM12.4194 84.4516C8.31103 84.4516 4.96774 81.1083 4.96774 77C4.96774 72.8917 8.31103 69.5484 12.4194 69.5484C16.5277 69.5484 19.871 72.8917 19.871 77C19.871 81.1083 16.5277 84.4516 12.4194 84.4516Z" fill="#F89077"/>
</g>
<defs>
<clipPath id="clip0_812_15564">
<rect width="154" height="154" fill="white"/>
</clipPath>
</defs>
</svg>
