<svg width="46" height="46" viewBox="0 0 46 46" fill="none" xmlns="http://www.w3.org/2000/svg">
<g clip-path="url(#clip0_815_15610)">
<path d="M34.6016 0C30.7414 0 27.6016 3.13988 27.6016 7C27.6016 10.8601 30.7414 14 34.6016 14C38.4617 14 41.6016 10.8601 41.6016 7C41.6016 3.13988 38.4617 0 34.6016 0ZM34.6016 11.6667C32.0248 11.6667 29.9349 9.57751 29.9349 7C29.9349 4.42249 32.0248 2.33333 34.6016 2.33333C37.1791 2.33333 39.2682 4.42249 39.2682 7C39.2682 9.57751 37.1791 11.6667 34.6016 11.6667Z" fill="#333988"/>
<path d="M27.877 44.6384L27.7423 42.9375C25.6208 43.786 23.316 44.2666 20.8973 44.2666C10.6545 44.2666 2.32192 35.8931 2.32192 25.6C2.32192 15.3069 10.6545 6.93331 20.8973 6.93331C22.5257 6.93331 24.0984 7.16664 25.6046 7.56413C25.5899 7.35176 25.5411 7.1496 25.5411 6.93331C25.5411 6.33366 25.6092 5.75188 25.7168 5.18413C24.1673 4.81544 22.559 4.59998 20.8973 4.59998C9.3558 4.59998 0 14.0018 0 25.6C0 37.1982 9.3558 46.6 20.8973 46.6C23.3949 46.6 25.7795 46.1372 28 45.3291C27.9467 45.1027 27.8963 44.8757 27.877 44.6384Z" fill="#333988"/>
<path d="M43.0786 28.3769H42.792L40.8208 17.869C40.6282 16.8445 39.7082 16.1 38.6342 16.1H29.7454C28.6721 16.1 27.7514 16.8445 27.5588 17.869L25.3366 29.7151C25.2188 30.3434 25.3944 30.9902 25.8167 31.4805C26.2397 31.9702 26.864 32.2537 27.5233 32.2537H28.9433L29.7529 42.1169C29.8446 43.2362 30.8091 44.1 31.9676 44.1H36.412C37.5713 44.1 38.5357 43.2363 38.6268 42.117L38.995 37.6384H43.0786C44.306 37.6384 45.3008 36.6743 45.3008 35.4846V30.5307C45.3008 29.3411 44.306 28.3769 43.0786 28.3769ZM36.412 41.9461H31.9676L30.9951 30.1H27.5232L29.7454 18.2538H33.0787V24.8058C33.0787 25.401 33.5758 25.8827 34.1898 25.8827C34.8039 25.8827 35.3009 25.401 35.3009 24.8058V18.2538H38.6342L40.5327 28.3769H35.9676C34.7402 28.3769 33.7454 29.3411 33.7454 30.5307V35.4846C33.7454 36.6743 34.7402 37.6384 35.9676 37.6384H36.7653L36.412 41.9461ZM43.0786 35.4846H35.9676V30.5307H43.0786V35.4846Z" fill="#333988"/>
<path d="M22.7377 21.0412V9.20001H20.2761V21.0412C19.2325 21.361 18.4119 22.0661 18.0403 22.9647H9.19922V25.0824H18.0403C18.5489 26.3134 19.9011 27.2 21.5069 27.2C23.5459 27.2 25.1992 25.7776 25.1992 24.0235C25.1992 22.6429 24.1686 21.4788 22.7377 21.0412ZM21.5069 25.0824C20.8284 25.0824 20.2761 24.6073 20.2761 24.0235C20.2761 23.4398 20.8284 22.9647 21.5069 22.9647C22.1855 22.9647 22.7377 23.4398 22.7377 24.0235C22.7377 24.6073 22.1855 25.0824 21.5069 25.0824Z" fill="#333988"/>
</g>
<defs>
<clipPath id="clip0_815_15610">
<rect width="46" height="46" fill="white"/>
</clipPath>
</defs>
</svg>
