<svg width="24" height="23" viewBox="0 0 24 23" fill="none" xmlns="http://www.w3.org/2000/svg">
<path d="M7.33333 7.89282C6.598 7.89282 6 8.48014 6 9.20235C6 9.92455 6.598 10.5119 7.33333 10.5119C8.06867 10.5119 8.66667 9.92455 8.66667 9.20235C8.66667 8.48014 8.06867 7.89282 7.33333 7.89282ZM7.33333 9.85711C6.96567 9.85711 6.66667 9.56345 6.66667 9.20235C6.66667 8.84124 6.96567 8.54758 7.33333 8.54758C7.701 8.54758 8 8.84124 8 9.20235C8 9.56345 7.701 9.85711 7.33333 9.85711Z" fill="black"/>
<path d="M11.9974 7.89282C11.2621 7.89282 10.6641 8.48014 10.6641 9.20235C10.6641 9.92455 11.2621 10.5119 11.9974 10.5119C12.7327 10.5119 13.3307 9.92455 13.3307 9.20235C13.3307 8.48014 12.7327 7.89282 11.9974 7.89282ZM11.9974 9.85711C11.6297 9.85711 11.3307 9.56345 11.3307 9.20235C11.3307 8.84124 11.6297 8.54758 11.9974 8.54758C12.3651 8.54758 12.6641 8.84124 12.6641 9.20235C12.6641 9.56345 12.3651 9.85711 11.9974 9.85711Z" fill="black"/>
<path d="M16.6654 7.89282C15.93 7.89282 15.332 8.48014 15.332 9.20235C15.332 9.92455 15.93 10.5119 16.6654 10.5119C17.4007 10.5119 17.9987 9.92455 17.9987 9.20235C17.9987 8.48014 17.4007 7.89282 16.6654 7.89282ZM16.6654 9.85711C16.2977 9.85711 15.9987 9.56345 15.9987 9.20235C15.9987 8.84124 16.2977 8.54758 16.6654 8.54758C17.033 8.54758 17.332 8.84124 17.332 9.20235C17.332 9.56345 17.033 9.85711 16.6654 9.85711Z" fill="black"/>
<path d="M20 2H4C2.916 2 2 2.89964 2 3.96429V14.7679C2 15.8325 2.916 16.7321 4 16.7321H13.5193L16.7537 20.2263C16.818 20.296 16.908 20.3333 17 20.3333C17.0403 20.3333 17.081 20.3265 17.1203 20.3114C17.2487 20.2626 17.3333 20.1412 17.3333 20.006V16.7321H20C21.084 16.7321 22 15.8325 22 14.7679V3.96429C22 2.89964 21.084 2 20 2ZM21.3333 14.7679C21.3333 15.4776 20.7227 16.0774 20 16.0774H17C16.816 16.0774 16.6667 16.2237 16.6667 16.4048V19.159L13.919 16.1907L12.253 14.2879C12.133 14.1511 11.922 14.135 11.783 14.2535C11.6433 14.3711 11.6277 14.578 11.7477 14.7151L12.9403 16.0774H4C3.27733 16.0774 2.66667 15.4776 2.66667 14.7679V3.96429C2.66667 3.25452 3.27733 2.65476 4 2.65476H20C20.7227 2.65476 21.3333 3.25452 21.3333 3.96429V14.7679Z" fill="black"/>
</svg>
