<svg width="24" height="24" viewBox="0 0 24 24" fill="none" xmlns="http://www.w3.org/2000/svg">
<path d="M21.1713 11.8947C20.5932 10.2147 20.094 8.76384 21.0825 7.45895C21.1631 7.35263 21.1424 7.22665 21.0289 7.13302C20.9155 7.03942 20.7285 6.99411 20.5452 7.01579C20.4262 7.02985 17.7711 7.36989 16.0718 9.74329C15.6115 9.38157 14.9122 8.76329 14.3088 7.94305C12.9754 6.13056 12.7452 4.26657 13.6245 2.40271C13.6787 2.28794 13.6246 2.16361 13.4851 2.08259C13.3456 2.00154 13.1454 1.97786 12.969 2.02173C12.9098 2.03646 11.5038 2.39275 10.1685 3.3122C8.93988 4.15821 7.53928 5.66126 7.84421 8.01723C8.00625 9.26915 7.98871 10.1461 7.91226 10.7442C7.52156 9.91165 6.87489 9.27583 6.29905 8.83583C5.32356 8.09036 4.34571 7.73419 4.30452 7.71942C4.13711 7.65927 3.92975 7.66591 3.77284 7.73653C3.61599 7.80712 3.53806 7.92887 3.57313 8.04868C4.17509 10.1056 3.57857 11.2739 2.94697 12.5108C2.48142 13.4225 2 14.3654 2 15.6743C2.00012 19.1623 6.4861 22 12.0001 22C17.514 22 22 19.1623 22 15.6743C22 14.303 21.5598 13.0235 21.1713 11.8947ZM15.6885 20.8739C16.333 20.3634 16.7195 19.7173 16.7195 19.0146C16.7195 16.8829 15.686 15.128 14.819 14.0311C13.8774 12.8398 12.9401 12.1563 12.9007 12.1279C12.7206 11.9977 12.4079 11.9845 12.2022 12.0984C11.9964 12.2123 11.9755 12.4101 12.1556 12.5402C12.1912 12.5661 15.7294 15.1684 15.7294 19.0146C15.7294 20.3154 14.0564 21.3737 12 21.3737C9.86554 21.3737 8.27067 20.1282 8.27067 19.0146C8.27067 18.4626 8.46044 18.0881 8.64612 17.7946C8.74771 17.634 8.6242 17.4518 8.37034 17.3875C8.11641 17.3232 7.82834 17.4014 7.72682 17.5619C7.51909 17.8905 7.28054 18.3525 7.28054 19.0146C7.28054 19.6793 7.69465 20.3571 8.42462 20.9052C5.23025 20.0282 2.99013 18.0138 2.99013 15.6743C2.99013 14.4641 3.42684 13.6088 3.88918 12.7033C4.45273 11.5996 5.0332 10.4629 4.72728 8.70325C5.75403 9.28848 7.28054 10.4718 7.28054 12.3341C7.28054 12.4589 7.39768 12.5718 7.57874 12.6214C7.75967 12.671 7.97 12.6479 8.11407 12.5626C8.31754 12.442 9.30841 11.6536 8.83107 7.96614C8.61111 6.26724 9.29643 4.85095 10.8677 3.75665C11.3987 3.38685 11.9478 3.11732 12.3924 2.93239C11.6701 5.13321 12.5166 6.99142 13.411 8.20735C14.48 9.66048 15.8178 10.5157 15.8743 10.5514C15.9932 10.6266 16.1646 10.6585 16.3291 10.636C16.4936 10.6135 16.6287 10.5396 16.6878 10.4399C17.5955 8.90868 18.9034 8.20001 19.7833 7.88036C19.2247 9.18266 19.7023 10.5711 20.2037 12.028C20.6001 13.1796 21.0098 14.3704 21.0098 15.6744C21.0099 17.9862 18.8227 19.9808 15.6885 20.8739Z" fill="#817A7A"/>
</svg>
