<svg width="129" height="266" viewBox="0 0 129 266" fill="none" xmlns="http://www.w3.org/2000/svg">
<path d="M54.4301 84.0158L47.998 99.8017L41.5664 84.0158L45.8545 57.2326H49.9471L54.4301 84.0158Z" fill="#F89077"/>
<path d="M57.5473 43.7523C57.5473 43.7523 61.8354 47.6547 56.3782 58.8288C56.3782 58.8288 50.5312 52.6205 46.6328 53.8624C46.8277 53.8629 55.5981 51.557 57.5473 43.7523Z" fill="#AFAFAF"/>
<path d="M38.2538 43.7523C38.2538 43.7523 33.9657 47.6547 39.423 58.8288C39.423 58.8288 45.27 52.6205 49.1683 53.8624C48.9735 53.8629 40.3979 51.557 38.2538 43.7523Z" fill="#AFAFAF"/>
<path d="M48.1094 133.293H76.1857L78.0986 159.055L75.1902 257.34H59.5449L48.1094 174.264V133.293Z" fill="#222222" stroke="black"/>
<path d="M19.8119 133.293H47.8882V174.264L36.4527 257.34H20.8073L17.899 159.055L19.8119 133.293Z" fill="#222222" stroke="black"/>
<path d="M95.4487 111.014L95.4486 111.014L95.4495 111.024C95.8226 114.929 94.143 118.859 91.1277 121.604L91.1218 121.609L91.116 121.615C88.2237 124.422 83.7742 127.945 77.9612 131.296L77.9583 131.297C75.3712 132.811 72.4274 134.327 69.1253 135.845L63.8232 122.534L76.7187 114.595L76.719 114.595L82.7608 110.87L83.1011 110.66L82.9713 110.282L78.1352 96.1985C79.2056 86.7694 80.9001 77.6081 82.33 70.7931C83.0476 67.3728 83.6983 64.545 84.1695 62.5727C84.3274 61.9117 84.4651 61.3468 84.5784 60.888C84.805 61.4215 85.0906 62.116 85.4221 62.9678C86.2973 65.2165 87.4924 68.5616 88.7672 72.9368C91.3167 81.687 94.1847 94.5567 95.4487 111.014Z" fill="#454444" stroke="black"/>
<path d="M12.1724 59.7628C22.5389 57.9614 28.7992 54.8033 32.489 52.0458C34.3648 50.644 35.5722 49.3486 36.3149 48.3937C36.4056 48.2771 36.4894 48.1656 36.5665 48.0597C39.1529 69.1313 41.9567 81.7136 44.1603 89.081C45.2867 92.8466 46.2577 95.2549 46.9654 96.7408C47.3194 97.4839 47.6084 97.9981 47.8191 98.337C47.9244 98.5063 48.0109 98.6331 48.077 98.7235C48.0941 98.7469 48.1121 98.771 48.1303 98.7945C49.3082 103.416 49.6561 109.646 49.5023 116.43C49.3474 123.259 48.6854 130.614 47.8703 137.389C47.0554 144.163 46.0883 150.352 45.3248 154.847C44.9432 157.095 44.6125 158.918 44.3773 160.18C44.2597 160.811 44.1659 161.301 44.1017 161.633C44.0716 161.788 44.048 161.909 44.0314 161.993C39.1365 166.951 31.9021 167.405 25.7536 166.553C22.6719 166.125 19.8994 165.374 17.8961 164.729C16.8951 164.407 16.0878 164.111 15.5321 163.897C15.2678 163.795 15.0605 163.711 14.9163 163.652C14.6422 162.145 14.6462 159.675 14.8279 156.739C15.0188 153.653 15.401 150.112 15.8268 146.758C16.2524 143.405 16.7206 140.245 17.0826 137.922C17.2635 136.761 17.4179 135.81 17.5269 135.149C17.5814 134.819 17.6246 134.561 17.6542 134.386L17.688 134.187L17.6928 134.159C19.66 128.404 20.277 120.845 20.1126 112.778C19.9475 104.684 18.9943 96.0365 17.7987 88.1092C16.6029 80.1804 15.1633 72.9636 14.0227 67.7294C13.4524 65.112 12.9567 62.9897 12.6034 61.5213C12.4268 60.7871 12.2858 60.2162 12.1889 59.8287C12.1832 59.8061 12.1777 59.7841 12.1724 59.7628Z" fill="#222222" stroke="black"/>
<mask id="path-8-inside-1_812_15490" fill="white">
<path d="M81.7197 164.011C81.7197 164.011 61.8399 172.702 51.7048 162.237C51.7048 162.237 42.9343 118.249 47.6116 99.0925C47.6116 98.9152 47.6116 98.7379 47.8064 98.5605C47.8064 98.5605 53.8483 90.5789 59.1107 46.768C59.1107 46.768 60.865 50.4931 67.6863 54.2176C71.584 56.3461 76.8465 58.2973 84.6426 59.5387C84.6426 59.5387 79.9648 77.2757 77.8208 96.6093C77.0413 102.64 76.6516 108.671 76.6516 114.524L63.3982 122.683L69.0503 136.873C72.5584 135.453 75.6767 133.857 78.4059 132.083C78.4065 132.616 83.0837 157.625 81.7197 164.011Z"/>
</mask>
<path d="M81.7197 164.011C81.7197 164.011 61.8399 172.702 51.7048 162.237C51.7048 162.237 42.9343 118.249 47.6116 99.0925C47.6116 98.9152 47.6116 98.7379 47.8064 98.5605C47.8064 98.5605 53.8483 90.5789 59.1107 46.768C59.1107 46.768 60.865 50.4931 67.6863 54.2176C71.584 56.3461 76.8465 58.2973 84.6426 59.5387C84.6426 59.5387 79.9648 77.2757 77.8208 96.6093C77.0413 102.64 76.6516 108.671 76.6516 114.524L63.3982 122.683L69.0503 136.873C72.5584 135.453 75.6767 133.857 78.4059 132.083C78.4065 132.616 83.0837 157.625 81.7197 164.011Z" fill="#222222"/>
<path d="M81.7197 164.011L82.1203 164.927L82.5904 164.722L82.6976 164.22L81.7197 164.011ZM51.7048 162.237L50.7241 162.433L50.7817 162.721L50.9865 162.933L51.7048 162.237ZM47.6116 99.0925L48.583 99.3297L48.6116 99.2128V99.0925H47.6116ZM47.8064 98.5605L48.4795 99.3001L48.5479 99.2378L48.6038 99.1641L47.8064 98.5605ZM59.1107 46.768L60.0154 46.3419L58.5328 43.1939L58.1178 46.6487L59.1107 46.768ZM67.6863 54.2176L68.1655 53.3399L68.1655 53.3399L67.6863 54.2176ZM84.6426 59.5387L85.6096 59.7937L85.8914 58.7249L84.7999 58.5511L84.6426 59.5387ZM77.8208 96.6093L78.8125 96.7375L78.8137 96.7285L78.8147 96.7196L77.8208 96.6093ZM76.6516 114.524L77.1758 115.375L77.6516 115.082V114.524H76.6516ZM63.3982 122.683L62.8739 121.831L62.1581 122.272L62.4692 123.053L63.3982 122.683ZM69.0503 136.873L68.1213 137.243L68.4933 138.177L69.4253 137.8L69.0503 136.873ZM78.4059 132.083L79.4059 132.082L79.4039 130.242L77.861 131.245L78.4059 132.083ZM81.7197 164.011C81.3191 163.095 81.3193 163.095 81.3194 163.094C81.3194 163.095 81.3194 163.094 81.3193 163.095C81.3191 163.095 81.3186 163.095 81.3177 163.095C81.3161 163.096 81.3132 163.097 81.3092 163.099C81.3012 163.102 81.2884 163.108 81.271 163.115C81.2363 163.13 81.1832 163.152 81.1125 163.182C80.9712 163.24 80.7599 163.325 80.4859 163.431C79.9378 163.642 79.1395 163.934 78.1485 164.254C76.1639 164.893 73.4206 165.636 70.3756 166.058C64.2293 166.91 57.1477 166.42 52.4232 161.541L50.9865 162.933C56.397 168.52 64.3228 168.916 70.6502 168.039C73.842 167.596 76.7022 166.821 78.7617 166.157C79.7929 165.825 80.6268 165.52 81.2054 165.297C81.4948 165.185 81.7206 165.094 81.8754 165.03C81.9528 164.998 82.0125 164.973 82.0537 164.956C82.0742 164.947 82.0901 164.94 82.1013 164.935C82.1068 164.933 82.1112 164.931 82.1144 164.93C82.116 164.929 82.1173 164.928 82.1182 164.928C82.1187 164.928 82.1192 164.928 82.1195 164.928C82.1199 164.927 82.1203 164.927 81.7197 164.011ZM51.7048 162.237C52.6855 162.042 52.6855 162.041 52.6854 162.041C52.6854 162.041 52.6853 162.04 52.6852 162.04C52.6849 162.039 52.6846 162.037 52.6841 162.034C52.683 162.029 52.6815 162.021 52.6795 162.011C52.6753 161.99 52.6692 161.959 52.6611 161.918C52.6448 161.835 52.6207 161.711 52.5893 161.549C52.5266 161.224 52.4351 160.744 52.3202 160.127C52.0904 158.891 51.767 157.103 51.3935 154.898C50.6462 150.485 49.6987 144.405 48.8971 137.729C48.0953 131.051 47.4411 123.791 47.2776 117.016C47.1138 110.226 47.4453 103.99 48.583 99.3297L46.6401 98.8553C45.4393 103.774 45.1131 110.22 45.2782 117.065C45.4438 123.925 46.1052 131.254 46.9114 137.968C47.7178 144.684 48.6705 150.797 49.4215 155.232C49.7971 157.449 50.1224 159.248 50.3539 160.492C50.4697 161.115 50.5621 161.599 50.6256 161.928C50.6573 162.092 50.6819 162.218 50.6985 162.303C50.7068 162.345 50.7132 162.377 50.7175 162.399C50.7196 162.41 50.7213 162.418 50.7224 162.424C50.7229 162.427 50.7233 162.429 50.7236 162.43C50.7238 162.431 50.7239 162.432 50.724 162.432C50.7241 162.432 50.7241 162.433 51.7048 162.237ZM48.6116 99.0925C48.6116 99.0689 48.6116 99.0553 48.6118 99.0432C48.612 99.032 48.6123 99.0279 48.6123 99.028C48.6122 99.0285 48.6106 99.0536 48.6002 99.0914C48.5891 99.1319 48.5709 99.1764 48.5444 99.2193C48.5185 99.2613 48.4931 99.2877 48.4795 99.3001L47.1334 97.8209C46.8993 98.0339 46.7474 98.2859 46.6717 98.5616C46.6059 98.8009 46.6116 99.0238 46.6116 99.0925H48.6116ZM47.8064 98.5605C48.6038 99.1641 48.6044 99.1632 48.6051 99.1623C48.6054 99.1619 48.6061 99.161 48.6066 99.1603C48.6077 99.1589 48.6088 99.1573 48.61 99.1557C48.6125 99.1524 48.6152 99.1487 48.6184 99.1444C48.6246 99.1358 48.6322 99.1253 48.6412 99.1126C48.6591 99.0872 48.6823 99.0533 48.7108 99.0101C48.7676 98.9238 48.8453 98.8 48.9423 98.6322C49.136 98.2967 49.4074 97.7841 49.7437 97.0413C50.4159 95.5564 51.3511 93.1434 52.4455 89.3721C54.6337 81.8316 57.4683 68.8263 60.1035 46.8873L58.1178 46.6487C55.4906 68.5206 52.6731 81.4116 50.5248 88.8147C49.4509 92.5151 48.5468 94.8357 47.9217 96.2164C47.6094 96.9064 47.3676 97.3597 47.2104 97.6318C47.1318 97.7678 47.0746 97.8583 47.0404 97.9102C47.0233 97.9362 47.012 97.9525 47.0067 97.96C47.004 97.9637 47.0029 97.9653 47.0033 97.9648C47.0035 97.9645 47.0041 97.9637 47.005 97.9624C47.0055 97.9617 47.0061 97.961 47.0068 97.9601C47.0071 97.9596 47.0077 97.9588 47.0079 97.9586C47.0085 97.9578 47.0091 97.957 47.8064 98.5605ZM59.1107 46.768C58.206 47.1941 58.2062 47.1946 58.2065 47.1951C58.2066 47.1953 58.2068 47.1958 58.207 47.1962C58.2074 47.197 58.2077 47.1978 58.2082 47.1987C58.209 47.2005 58.21 47.2024 58.211 47.2047C58.2132 47.2091 58.2158 47.2144 58.2188 47.2207C58.225 47.2331 58.233 47.2491 58.2429 47.2685C58.2629 47.3073 58.2908 47.3598 58.3275 47.425C58.4008 47.5555 58.509 47.7371 58.6588 47.9621C58.9584 48.4125 59.4235 49.0364 60.1062 49.7749C61.4727 51.2532 63.7032 53.1821 67.207 55.0953L68.1655 53.3399C64.848 51.5285 62.7908 49.7327 61.5748 48.4173C60.9662 47.759 60.5665 47.2189 60.3239 46.8543C60.2026 46.672 60.1206 46.5334 60.0713 46.4457C60.0466 46.4018 60.0302 46.3706 60.0211 46.353C60.0166 46.3442 60.0139 46.3388 60.013 46.337C60.0125 46.336 60.0125 46.3359 60.0129 46.3368C60.0131 46.3372 60.0134 46.3378 60.0138 46.3387C60.014 46.3391 60.0143 46.3396 60.0145 46.3401C60.0146 46.3404 60.0149 46.3409 60.0149 46.341C60.0151 46.3415 60.0154 46.3419 59.1107 46.768ZM67.207 55.0953C71.2194 57.2864 76.5938 59.2697 84.4854 60.5262L84.7999 58.5511C77.0992 57.325 71.9487 55.4059 68.1655 53.3399L67.207 55.0953ZM84.6426 59.5387C83.6757 59.2837 83.6756 59.2838 83.6756 59.284C83.6755 59.2842 83.6755 59.2844 83.6754 59.2848C83.6752 59.2854 83.675 59.2863 83.6747 59.2875C83.674 59.2898 83.6731 59.2933 83.672 59.2978C83.6696 59.3068 83.6661 59.32 83.6616 59.3375C83.6524 59.3725 83.639 59.4243 83.6213 59.4924C83.5861 59.6287 83.5344 59.8304 83.4679 60.0936C83.3349 60.6199 83.1429 61.3921 82.9059 62.3786C82.4319 64.3515 81.778 67.1823 81.057 70.6186C79.6155 77.4886 77.9036 86.7899 76.8268 96.4991L78.8147 96.7196C79.882 87.0952 81.5809 77.8611 83.0144 71.0293C83.7309 67.6145 84.3804 64.8027 84.8505 62.8458C85.0856 61.8673 85.2757 61.1028 85.407 60.5836C85.4725 60.324 85.5234 60.1257 85.5578 59.9927C85.5749 59.9263 85.588 59.8761 85.5967 59.8428C85.601 59.8261 85.6043 59.8136 85.6065 59.8054C85.6075 59.8013 85.6083 59.7983 85.6089 59.7963C85.6091 59.7954 85.6093 59.7946 85.6094 59.7942C85.6095 59.794 85.6095 59.7938 85.6095 59.7937C85.6096 59.7937 85.6096 59.7937 84.6426 59.5387ZM76.829 96.4811C76.0442 102.553 75.6516 108.627 75.6516 114.524H77.6516C77.6516 108.714 78.0384 102.726 78.8125 96.7375L76.829 96.4811ZM76.1274 113.672L62.8739 121.831L63.9224 123.534L77.1758 115.375L76.1274 113.672ZM62.4692 123.053L68.1213 137.243L69.9793 136.502L64.3272 122.313L62.4692 123.053ZM69.4253 137.8C72.9834 136.36 76.1601 134.736 78.9509 132.922L77.861 131.245C75.1933 132.979 72.1334 134.547 68.6753 135.946L69.4253 137.8ZM77.4059 132.085C77.406 132.186 77.4238 132.305 77.429 132.342C77.4391 132.415 77.4533 132.507 77.4706 132.616C77.5053 132.835 77.5556 133.138 77.6182 133.512C77.7439 134.261 77.9208 135.304 78.1292 136.562C78.5458 139.078 79.0864 142.444 79.5842 145.991C80.0824 149.541 80.5359 153.258 80.7803 156.479C81.0279 159.742 81.0486 162.366 80.7417 163.802L82.6976 164.22C83.0728 162.463 83.0203 159.566 82.7746 156.328C82.5256 153.046 82.0655 149.281 81.5648 145.713C81.0638 142.143 80.5202 138.758 80.1023 136.235C79.8935 134.975 79.7155 133.926 79.5906 133.181C79.528 132.807 79.479 132.512 79.4459 132.303C79.4292 132.198 79.4173 132.119 79.4097 132.065C79.3973 131.976 79.4058 132.014 79.4059 132.082L77.4059 132.085Z" fill="black" mask="url(#path-8-inside-1_812_15490)"/>
<path d="M69.3823 60.2873C69.3252 60.4737 69.2531 60.7066 69.1659 60.9823C68.9153 61.7746 68.5408 62.9198 68.0464 64.3278C67.0572 67.1443 65.5888 71.0096 63.672 75.2052C60.1537 82.9059 55.1573 91.6444 48.8908 97.0881C48.9544 96.9544 49.0211 96.811 49.0907 96.6572C49.7511 95.1984 50.6786 92.8085 51.7678 89.0549C53.9002 81.7069 56.6574 69.1165 59.2429 48.0237C59.5064 48.3761 59.846 48.7927 60.2758 49.2576C61.5297 50.614 63.5477 52.3783 66.6757 54.1589L62.6473 58.303L61.9897 58.9795L62.9187 59.1438L69.3823 60.2873Z" fill="#E0B5B5" stroke="black"/>
<path d="M33.3518 58.303L29.3234 54.1589C32.4514 52.3783 34.4694 50.614 35.7233 49.2576C36.1531 48.7927 36.4927 48.3761 36.7562 48.0237C39.3417 69.1165 42.0989 81.7069 44.2312 89.0549C45.3205 92.8085 46.248 95.1984 46.9084 96.6572C46.978 96.811 47.0447 96.9544 47.1082 97.0881C40.8418 91.6444 35.8454 82.9059 32.3271 75.2052C30.4103 71.0096 28.9418 67.1443 27.9527 64.3278C27.4582 62.9198 27.0838 61.7746 26.8332 60.9823C26.746 60.7066 26.6738 60.4737 26.6168 60.2873L33.0804 59.1438L34.0094 58.9795L33.3518 58.303Z" fill="#E0B5B5" stroke="black"/>
<path d="M53.4552 105.655C53.4552 106.897 52.4808 107.961 51.1162 107.961C49.9471 107.961 48.7773 106.897 48.7773 105.655C48.7773 104.414 49.7516 103.35 51.1162 103.35C52.4808 103.35 53.6506 104.414 53.4552 105.655Z" fill="#333988"/>
<path d="M51.5064 132.971C52.9058 132.971 54.0402 131.938 54.0402 130.665C54.0402 129.391 52.9058 128.359 51.5064 128.359C50.1071 128.359 48.9727 129.391 48.9727 130.665C48.9727 131.938 50.1071 132.971 51.5064 132.971Z" fill="#333988"/>
<path d="M51.5064 117.007C52.9058 117.007 54.0402 115.975 54.0402 114.701C54.0402 113.428 52.9058 112.395 51.5064 112.395C50.1071 112.395 48.9727 113.428 48.9727 114.701C48.9727 115.975 50.1071 117.007 51.5064 117.007Z" fill="#333988"/>
<path d="M75.676 257.841H59.1094V264.049C59.1094 265.113 60.0837 266 61.2534 266H83.4722V265.113C83.4722 261.034 79.9635 257.841 75.676 257.841Z" fill="#333988"/>
<path d="M20.3235 257.841H36.8901V264.049C36.8901 265.113 35.9158 266 34.7461 266H12.5273V265.113C12.5273 261.034 16.0354 257.841 20.3235 257.841Z" fill="#333988"/>
<path d="M51.5101 145.031L34.3589 146.628C33.5794 146.628 32.7994 146.451 32.2148 145.919C32.0199 145.741 31.8251 145.564 31.8251 145.209L27.537 134.922C27.1473 134.035 26.5627 133.325 25.7827 132.616L19.1562 127.118L23.6392 118.959L36.1132 127.295L41.5704 130.665L40.2064 132.971L36.1132 131.907L37.2823 137.405L37.8669 140.243L51.1203 140.598C51.7049 140.598 52.2895 140.775 52.6798 141.13C54.4335 142.371 53.4587 144.854 51.5101 145.031Z" fill="#AFAFAF"/>
<path d="M41.3762 133.148L40.207 132.793L41.5711 130.487L42.3505 131.019C43.7151 131.729 42.9351 133.503 41.3762 133.148Z" fill="#AFAFAF"/>
<path d="M0.551464 111.024L0.55155 111.024L0.552262 111.014C1.81624 94.5567 4.68408 81.687 7.23348 72.9368C8.50818 68.5616 9.70325 65.2165 10.5784 62.9678C10.9101 62.1153 11.1959 61.4204 11.4225 60.8868C11.5364 61.346 11.675 61.9115 11.8341 62.5735C12.3084 64.5459 12.9652 67.3741 13.6951 70.7948C15.1493 77.6098 16.8921 86.7712 18.0592 96.201L13.224 110.282L13.0947 110.658L13.4327 110.869L32.178 122.532L26.8526 135.901C25.4556 135.43 23.6784 134.564 21.7202 133.46C19.5611 132.244 17.2098 130.755 14.9513 129.23C10.4235 126.173 6.31304 123.001 4.88494 121.615L4.87918 121.609L4.87324 121.604C1.85794 118.859 0.178354 114.929 0.551464 111.024Z" fill="#454444" stroke="black"/>
<path d="M71.4978 139.917L59.9727 133.962L43.8999 159.72L55.425 165.676L71.4978 139.917Z" fill="white"/>
<path d="M71.0603 138.493L59.5352 132.537L43.4623 158.296L54.9875 164.252L71.0603 138.493Z" fill="white"/>
<path d="M68.6617 136.518L51.7054 164.01L30.8507 153.191C29.4861 152.481 28.9015 150.885 29.6815 149.644L32.0204 145.741C32.605 146.273 33.385 146.628 34.1645 146.451L51.3157 144.854C53.4597 144.677 54.2391 142.371 52.6803 141.129C52.2905 140.774 51.706 140.597 51.1208 140.597L37.8674 140.242L37.2828 137.404L40.0114 132.97L41.376 130.664L43.7149 126.939C44.4944 125.697 46.2487 125.165 47.6127 125.875L68.6617 136.518Z" fill="#333988"/>
<path d="M47.3822 11.4705H33.3828L35.6531 33.794C35.8422 35.4144 36.4097 36.8543 37.5451 38.1148L39.4371 40.2752C40.7611 41.8956 42.6531 42.7956 44.7342 43.1555L46.0582 43.3355C46.8148 43.5155 47.572 43.5155 48.3285 43.3355L49.6531 43.1555C51.7342 42.7956 53.6262 41.8951 54.9502 40.2752L56.8422 38.1148C57.9771 36.8543 58.5451 35.4144 58.7342 33.794L61.3828 11.4705H47.3822Z" fill="#AFAFAF"/>
<path d="M64.4936 24.2029C63.6003 25.7126 61.8129 26.7188 60.4729 26.3834C59.1329 26.048 58.4623 24.3706 59.3563 22.6931C60.2496 21.1834 62.0369 20.1772 63.3769 20.5126C64.9403 21.0157 65.3876 22.6931 64.4936 24.2029Z" fill="#AFAFAF"/>
<path d="M31.8811 24.2029C32.7745 25.7126 34.5619 26.7188 35.902 26.3834C37.242 26.048 37.9127 24.3706 37.0187 22.6931C36.1253 21.1834 34.3379 20.1772 32.9978 20.5126C31.4344 21.0157 30.9877 22.6931 31.8811 24.2029Z" fill="#AFAFAF"/>
<path d="M35.8623 6.32761C35.8623 6.32761 47.4528 -9.20317 63.6797 8.39841L61.9409 7.88084C61.9409 7.88084 65.0316 10.8143 62.3272 20.6502C62.3272 20.6502 60.5884 20.8227 60.009 24.2742C60.009 24.2742 59.6227 16.1641 57.3045 14.6108C57.3045 14.6108 42.0433 15.4735 38.18 12.3675C38.18 12.3675 34.3167 18.0618 35.8618 26C35.8618 26 32.9641 20.9958 31.4185 18.2349C30.2597 16.3366 29.6797 14.2658 29.6797 12.0224C30.0671 9.43356 31.2259 6.32761 35.8623 6.32761Z" fill="#324A5E"/>
<path d="M53.4579 20.8712H42.7383V21.4039H53.4579V20.8712Z" fill="#324A5E"/>
<path d="M60.0829 24.9508C60.0829 27.2566 59.3035 29.2078 55.7948 29.2078C52.2868 29.2078 49.3633 26.0153 49.3633 23.7094C49.3633 21.4036 52.2868 20.5169 55.7948 20.5169C59.3035 20.5164 60.0829 22.4676 60.0829 24.9508Z" fill="#333988"/>
<path d="M36.1094 24.9508C36.1094 27.2566 36.8888 29.2078 40.3975 29.2078C43.9055 29.2078 46.829 26.0153 46.829 23.7094C46.829 21.4036 43.9055 20.5169 40.3975 20.5169C36.8888 20.5164 36.1094 22.4676 36.1094 24.9508Z" fill="#333988"/>
<path d="M50.341 26.9023C50.1461 26.9023 49.9512 26.725 49.9512 26.5476C49.9512 25.4836 49.1718 24.7738 48.0021 24.7738C46.8329 24.7738 46.0529 25.4831 46.0529 26.5476C46.0529 26.725 45.858 26.9023 45.6632 26.9023C45.4683 26.9023 45.2734 26.725 45.2734 26.5476C45.2734 25.3058 46.4426 24.2418 47.8072 24.2418C49.1718 24.2418 50.341 25.3058 50.341 26.5476C50.7307 26.7244 50.5358 26.9023 50.341 26.9023Z" fill="#324A5E"/>
<path d="M73.2125 133.829L69.0329 128.04L64.2247 122.67C64.2247 122.67 59.0683 126.77 52.2366 127.589L45.3203 132.203L48.7552 141.567L57.147 147.185L64.8491 142.047C67.9517 136.899 73.2125 133.829 73.2125 133.829Z" fill="#AFAFAF"/>
<path d="M55.9104 146.251L64.8494 142.047C65.4467 140.989 66.3169 139.969 67.0291 139.054C67.6997 138.386 68.3708 137.719 68.8842 137.156L59.4355 125.426C58.5345 125.807 57.633 126.189 56.4597 126.532C55.1287 126.98 53.5258 127.389 51.9641 127.551L45.8438 134.053L55.7533 146.356L55.9104 146.251Z" fill="#AFAFAF"/>
<g clip-path="url(#clip0_812_15490)">
<path d="M116.906 4.00769C113.046 4.00769 109.906 7.14757 109.906 11.0077C109.906 14.8678 113.046 18.0077 116.906 18.0077C120.766 18.0077 123.906 14.8678 123.906 11.0077C123.906 7.14757 120.766 4.00769 116.906 4.00769ZM116.906 15.6744C114.329 15.6744 112.24 13.5852 112.24 11.0077C112.24 8.43018 114.329 6.34102 116.906 6.34102C119.484 6.34102 121.573 8.43018 121.573 11.0077C121.573 13.5852 119.484 15.6744 116.906 15.6744Z" fill="#333988"/>
<path d="M110.182 48.6461L110.047 46.9452C107.926 47.7937 105.621 48.2743 103.202 48.2743C92.9592 48.2743 84.6266 39.9008 84.6266 29.6077C84.6266 19.3146 92.9592 10.941 103.202 10.941C104.83 10.941 106.403 11.1743 107.909 11.5718C107.895 11.3594 107.846 11.1573 107.846 10.941C107.846 10.3414 107.914 9.75957 108.021 9.19182C106.472 8.82313 104.864 8.60767 103.202 8.60767C91.6605 8.60767 82.3047 18.0095 82.3047 29.6077C82.3047 41.2059 91.6605 50.6077 103.202 50.6077C105.7 50.6077 108.084 50.1449 110.305 49.3368C110.251 49.1104 110.201 48.8834 110.182 48.6461Z" fill="#333988"/>
<path d="M125.383 32.3846H125.097L123.125 21.8767C122.933 20.8522 122.013 20.1077 120.939 20.1077H112.05C110.977 20.1077 110.056 20.8522 109.864 21.8767L107.641 33.7228C107.524 34.3511 107.699 34.9979 108.121 35.4882C108.544 35.9779 109.169 36.2614 109.828 36.2614H111.248L112.058 46.1246C112.149 47.2439 113.114 48.1077 114.272 48.1077H118.717C119.876 48.1077 120.84 47.2439 120.932 46.1247L121.3 41.6461H125.383C126.611 41.6461 127.605 40.6819 127.605 39.4923V34.5384C127.605 33.3488 126.611 32.3846 125.383 32.3846ZM118.717 45.9538H114.272L113.3 34.1077H109.828L112.05 22.2615H115.383V28.8135C115.383 29.4087 115.88 29.8904 116.495 29.8904C117.109 29.8904 117.606 29.4087 117.606 28.8135V22.2615H120.939L122.837 32.3846H118.272C117.045 32.3846 116.05 33.3488 116.05 34.5384V39.4923C116.05 40.6819 117.045 41.6461 118.272 41.6461H119.07L118.717 45.9538ZM125.383 39.4923H118.272V34.5384H125.383V39.4923Z" fill="#333988"/>
<path d="M105.042 25.0489V13.2077H102.581V25.0489C101.537 25.3687 100.717 26.0738 100.345 26.9724H91.5039V29.0901H100.345C100.854 30.3211 102.206 31.2077 103.812 31.2077C105.851 31.2077 107.504 29.7853 107.504 28.0312C107.504 26.6505 106.473 25.4865 105.042 25.0489ZM103.812 29.0901C103.133 29.0901 102.581 28.615 102.581 28.0312C102.581 27.4475 103.133 26.9724 103.812 26.9724C104.49 26.9724 105.042 27.4475 105.042 28.0312C105.042 28.615 104.49 29.0901 103.812 29.0901Z" fill="#333988"/>
</g>
<defs>
<clipPath id="clip0_812_15490">
<rect width="46" height="46" fill="white" transform="translate(82.3047 4.00769)"/>
</clipPath>
</defs>
</svg>
