<svg width="161" height="112" viewBox="0 0 161 112" fill="none" xmlns="http://www.w3.org/2000/svg">
<path d="M47.9181 72.6427C50.1554 72.6427 51.969 70.8103 51.969 68.55C51.969 66.2896 50.1554 64.4573 47.9181 64.4573C45.6808 64.4573 43.8672 66.2896 43.8672 68.55C43.8672 70.8103 45.6808 72.6427 47.9181 72.6427Z" fill="#F89077"/>
<path d="M64.1056 64.4265C66.3429 64.4265 68.1565 62.5941 68.1565 60.3338C68.1565 58.0735 66.3429 56.2411 64.1056 56.2411C61.8683 56.2411 60.0547 58.0735 60.0547 60.3338C60.0547 62.5941 61.8683 64.4265 64.1056 64.4265Z" fill="#F89077"/>
<path d="M80.2775 48.0249C82.5147 48.0249 84.3284 46.1925 84.3284 43.9322C84.3284 41.6718 82.5147 39.8395 80.2775 39.8395C78.0402 39.8395 76.2266 41.6718 76.2266 43.9322C76.2266 46.1925 78.0402 48.0249 80.2775 48.0249Z" fill="#F89077"/>
<path d="M96.5119 62.3187C98.7491 62.3187 100.563 60.4863 100.563 58.226C100.563 55.9657 98.7491 54.1333 96.5119 54.1333C94.2746 54.1333 92.4609 55.9657 92.4609 58.226C92.4609 60.4863 94.2746 62.3187 96.5119 62.3187Z" fill="#F89077"/>
<path d="M112.672 39.7782C114.909 39.7782 116.723 37.9458 116.723 35.6855C116.723 33.4251 114.909 31.5928 112.672 31.5928C110.435 31.5928 108.621 33.4251 108.621 35.6855C108.621 37.9458 110.435 39.7782 112.672 39.7782Z" fill="#F89077"/>
<path d="M112.791 29.5505C111.201 29.5536 109.709 30.1816 108.587 31.319C107.465 32.4564 106.849 33.9672 106.852 35.5725C106.854 36.8664 107.265 38.0645 107.959 39.0454L98.4087 52.3644C97.8465 52.1867 97.2484 52.0907 96.6283 52.0907C95.5384 52.0927 94.5175 52.3937 93.6389 52.9143L85.9098 46.1075C86.2057 45.3847 86.3604 44.6028 86.3588 43.797C86.3528 40.4886 83.6838 37.7972 80.3981 37.7972C77.1174 37.8034 74.4535 40.5049 74.4595 43.8195C74.4613 44.7794 74.6887 45.687 75.0887 46.4925C75.0662 46.5134 75.0427 46.5326 75.0208 46.5545L66.9341 54.7553C66.9118 54.7777 66.8926 54.802 66.8717 54.8255C66.0739 54.4252 65.1756 54.1987 64.225 54.1987C60.9443 54.2048 58.2804 56.9064 58.2864 60.221C58.2869 60.5031 58.3082 60.7803 58.3461 61.0522L52.2286 64.1567C51.1514 63.0806 49.6704 62.4145 48.0362 62.4145C44.7555 62.4206 42.0916 65.1222 42.0977 68.4368C42.1037 71.7452 44.7727 74.4366 48.0471 74.4366H48.0584C49.6476 74.4335 51.1405 73.8052 52.2622 72.6681C53.3839 71.5305 54 70.0196 53.997 68.4143C53.9965 68.1322 53.9752 67.8552 53.9373 67.5833L60.0538 64.4791C61.1295 65.555 62.6075 66.2208 64.2358 66.2208H64.2472C67.5279 66.2146 70.1918 63.5131 70.1857 60.1985C70.184 59.2386 69.9565 58.331 69.5563 57.5255C69.5788 57.5046 69.6023 57.4854 69.6243 57.4632L77.7109 49.2625C77.7327 49.2405 77.7516 49.2168 77.7721 49.1938C78.5676 49.5934 79.4626 49.8193 80.4089 49.8193H80.4203C81.4894 49.8173 82.5146 49.5311 83.4129 48.9985L91.1418 55.8051C90.8497 56.5163 90.6882 57.2958 90.6897 58.113C90.6958 61.4214 93.3647 64.1128 96.6391 64.1128H96.6505C99.9312 64.1066 102.595 61.4051 102.589 58.0905C102.587 56.7969 102.176 55.599 101.482 54.6182L111.031 41.3005C111.59 41.4771 112.185 41.5726 112.801 41.5726H112.812C116.093 41.5665 118.757 38.8649 118.751 35.5503C118.745 32.2422 116.076 29.5505 112.791 29.5505ZM49.5731 69.9607C49.1673 70.3719 48.6275 70.5994 48.0524 70.6004L48.0481 72.5188V70.6004C46.8637 70.6004 45.8987 69.627 45.8964 68.4307C45.8941 67.2315 46.8576 66.2545 48.0483 66.2522C49.2327 66.2522 50.1977 67.2256 50.2 68.4222C50.2015 69.0028 49.9789 69.5491 49.5731 69.9607ZM64.2409 62.3841L64.2366 64.3025V62.3841C63.0522 62.3841 62.0869 61.4107 62.0847 60.2143C62.0824 59.0152 63.0459 58.0382 64.2368 58.0359C65.4212 58.0359 66.3862 59.0093 66.3885 60.2057C66.3913 61.4048 65.4275 62.3818 64.2409 62.3841ZM81.9344 45.3431C81.5286 45.7544 80.9889 45.9819 80.4137 45.9829L80.4094 47.9012V45.9829C79.2251 45.9829 78.26 45.0094 78.2578 43.8131C78.2555 42.614 79.219 41.6369 80.4097 41.6346C81.5941 41.6346 82.5591 42.6081 82.5614 43.8047C82.5631 44.3852 82.3403 44.9316 81.9344 45.3431ZM96.6439 60.2764L96.6396 62.1947V60.2764C95.4553 60.2764 94.4902 59.3029 94.488 58.1066C94.4857 56.9074 95.4492 55.9304 96.6399 55.9281C97.8243 55.9281 98.7896 56.9016 98.7918 58.0979C98.7944 59.2968 97.8306 60.2743 96.6439 60.2764ZM112.806 37.736L112.801 39.6543V37.736C111.617 37.736 110.652 36.7622 110.65 35.5659C110.649 34.9851 110.872 34.4388 111.277 34.0272C111.683 33.6159 112.223 33.3885 112.802 33.3874C113.986 33.3874 114.952 34.3609 114.954 35.5572C114.956 36.7564 113.992 37.7339 112.806 37.736Z" fill="#333988"/>
<path d="M151.096 111.563L10.0847 111.831C5.91242 111.839 2.52428 108.425 2.51643 104.205L2.51172 101.658L158.632 101.362L158.636 103.908C158.644 108.128 155.268 111.555 151.096 111.563Z" fill="#959CB3"/>
<path d="M160.842 99.1376C160.839 97.8205 159.783 96.7548 158.481 96.7548H158.476L155.801 96.7599L155.643 11.5241C155.631 5.16435 150.498 0 144.196 0C144.189 0 144.181 0 144.174 0L16.2938 0.243077C9.9847 0.255151 4.86182 5.4446 4.87345 11.8104L5.03178 97.0465L2.35615 97.0516C1.73004 97.0528 1.13001 97.3058 0.688312 97.7541C0.246614 98.2024 -0.00125185 98.8103 4.75477e-06 99.4439L0.00471704 101.99C0.0150841 107.51 4.46254 112 9.91967 112H9.93852L150.95 111.731C153.598 111.726 156.086 110.679 157.955 108.781C159.825 106.883 160.851 104.363 160.847 101.684L160.842 99.1376ZM9.59484 11.8018C9.58793 8.06825 12.5969 5.02581 16.3026 5.01851L144.183 4.77543C144.187 4.77543 144.191 4.77543 144.196 4.77543C147.899 4.77543 150.914 7.8042 150.921 11.533L151.08 96.7691L9.75349 97.0379L9.59484 11.8018ZM154.611 105.411C153.632 106.405 152.329 106.954 150.941 106.956L9.93004 107.225L9.91999 109.612V107.225C7.06152 107.225 4.73208 104.873 4.72642 101.981L4.72611 101.822L70.5184 101.697C70.5149 101.75 70.5105 101.803 70.5108 101.857C70.5133 103.174 71.5695 104.239 72.8714 104.239H72.8761L87.9846 104.21C89.2883 104.208 90.3433 103.137 90.3407 101.818C90.3407 101.764 90.336 101.712 90.3326 101.659L153.441 101.539H153.445H153.449H153.453L156.125 101.534L156.125 101.693C156.127 103.097 155.59 104.417 154.611 105.411Z" fill="#817A7A"/>
<path d="M153.274 12.6356C153.265 7.59642 149.153 3.48572 144.171 3.49526L16.2908 3.73865C11.304 3.74818 7.21715 7.87477 7.22658 12.9139L7.38931 100.537L153.437 100.26L153.274 12.6356ZM17.4428 90.3303L17.3008 13.9237L143.204 13.6845L143.346 90.091L17.4428 90.3303Z" fill="#AFB9D2"/>
<path d="M145.008 12.135C144.565 11.6892 143.966 11.4388 143.342 11.4388H143.337L17.4343 11.6781C16.1305 11.6806 15.0756 12.7518 15.0781 14.0701L15.2201 90.4767C15.2214 91.1099 15.4711 91.7171 15.9147 92.1639C16.3574 92.6097 16.9564 92.8601 17.5807 92.8601H17.5851L143.488 92.6208C144.792 92.6183 145.847 91.5471 145.845 90.2285L145.703 13.8219C145.701 13.189 145.451 12.5818 145.008 12.135ZM123.169 87.8842C123.173 87.8314 123.177 87.7787 123.177 87.725L123.102 46.9751C123.099 45.6577 122.043 44.592 120.741 44.592H120.736C119.433 44.5945 118.378 45.6657 118.38 46.9843L118.456 87.7342C118.456 87.7879 118.46 87.8406 118.464 87.8937L103.025 87.9229C103.028 87.8702 103.033 87.8174 103.032 87.764L103.009 75.0297C103.006 73.7123 101.95 72.6466 100.648 72.6466H100.643C99.3397 72.6491 98.2848 73.7202 98.2873 75.0389L98.3109 87.7733C98.3109 87.827 98.3156 87.8797 98.319 87.9324L82.88 87.9617C82.8835 87.9089 82.8879 87.8562 82.8876 87.8025L82.8307 57.2399C82.8282 55.9226 81.7717 54.8568 80.4705 54.8568H80.4658C79.162 54.8594 78.1071 55.9305 78.1096 57.2492L78.1665 87.8117C78.1665 87.8654 78.1712 87.9182 78.1747 87.9709L62.7356 88.0001C62.7391 87.9474 62.7435 87.8946 62.7432 87.8409L62.7243 77.6533C62.7218 76.3359 61.6656 75.2702 60.3638 75.2702H60.3591C59.0554 75.2727 58.0004 76.3439 58.0029 77.6625L58.0218 87.8502C58.0218 87.9038 58.0265 87.9566 58.03 88.0097L42.591 88.0389C42.5944 87.9874 42.5985 87.9359 42.5985 87.8838C42.5985 87.2537 42.3465 86.6392 41.9061 86.1966C41.4685 85.7511 40.8581 85.4963 40.238 85.4963C39.6178 85.4963 39.0071 85.7514 38.5667 86.1966C38.129 86.6395 37.8774 87.2534 37.8774 87.8838C37.8774 87.9385 37.8818 87.9935 37.8856 88.0478L19.9362 88.0818L19.8033 16.4507L140.985 16.22L141.118 87.8511L123.169 87.8842Z" fill="#333988"/>
</svg>
