<svg width="357" height="436" viewBox="0 0 357 436" fill="none" xmlns="http://www.w3.org/2000/svg">
<path d="M1 0H357V436H1V0Z" fill="url(#paint0_radial_812_15432)"/>
<path d="M1 244L8 233.5L10.5 229.5L13 225L17.5 218L23.5 209.5L29 202.5L36 195L40 192L44 189.5L46 188.5L47 188L48 187.5L50 186.5L54 186L57 186.5L60 187.5L63 189L64 190L68 194L71 197L73 200.5L75 204L76 207L77.5 211.5L79.5 216L82 220L83.5 222.5C84.5 223.333 86.6 225 87 225C87.4 225 89.1667 225.667 90 226H93L96.5 223.5L99 220.5L101 218L104 217H106.5H108.5L112 218L114.5 220.5L117 224.5L119.5 228.5L121 231L122.5 233L124.5 236.5L126 238L127.5 239L129 240L131.5 241.5L134.5 242H136.5H138H142L144 242.5L145.5 245L146.5 247L147.5 250L148.5 252L151 255L153 256L156.5 257.5H160.5L163.5 255L166 250L167.5 245L169 240L169.5 236.5L170.5 233.5L171.5 228.5L172.5 220.5L173.5 213L176 204.5L179.5 197.5L184.5 195.5H189L192 197.5L194.5 200L196 202.5L197.5 205.5L199.5 208L201 210L203.5 211.5L207.5 213H218L223 212L226 211.5L230.5 210L234 208L237.5 207C238.167 207 239.8 207 241 207C242.2 207 245.167 207.667 246.5 208L249.5 210L252.5 213L255 215.5L258.5 222.5L263 230L267.5 235.5L270.5 238H276H281.5L286 237.5L289.5 235.5L292.5 234L296.5 233L300.5 234L303.5 236L305.5 239C306 239.833 307.1 241.6 307.5 242C308 242.5 311 246.5 311 247C311 247.4 314.333 249.5 316 250.5L321 252.5C320.833 252.5 321.2 252.5 324 252.5C326.8 252.5 329.167 251.833 330 251.5L335.5 248L341.5 244.5L347 240.5L351 238L354 236L356 235.5H357" stroke="white"/>
<circle cx="213" cy="211" r="18" fill="#D9D9D9"/>
<circle cx="213" cy="211" r="8" fill="#333992"/>
<path d="M48.232 89.456C48.232 90.3893 47.9987 91.2667 47.532 92.088C47.084 92.9093 46.412 93.6 45.516 94.16C44.6387 94.72 43.5933 95.056 42.38 95.168V97.436H40.56V95.168C38.8053 95 37.3867 94.4493 36.304 93.516C35.2213 92.5827 34.68 91.3507 34.68 89.82H38.096C38.152 90.548 38.3853 91.1547 38.796 91.64C39.2067 92.1067 39.7947 92.4053 40.56 92.536V86.376C39.3093 86.0587 38.292 85.7413 37.508 85.424C36.724 85.088 36.052 84.5653 35.492 83.856C34.9507 83.1467 34.68 82.176 34.68 80.944C34.68 79.3947 35.2213 78.116 36.304 77.108C37.3867 76.0813 38.8053 75.484 40.56 75.316V73.048H42.38V75.316C44.0227 75.4653 45.3387 75.988 46.328 76.884C47.336 77.7613 47.9053 78.9747 48.036 80.524H44.62C44.564 79.9453 44.34 79.432 43.948 78.984C43.556 78.5173 43.0333 78.2 42.38 78.032V84.08C43.6307 84.3787 44.648 84.696 45.432 85.032C46.216 85.3493 46.8787 85.8627 47.42 86.572C47.9613 87.2627 48.232 88.224 48.232 89.456ZM37.928 80.776C37.928 81.5413 38.152 82.1387 38.6 82.568C39.0667 82.9973 39.72 83.3427 40.56 83.604V77.948C39.7573 78.0413 39.1133 78.3307 38.628 78.816C38.1613 79.3013 37.928 79.9547 37.928 80.776ZM42.38 92.536C43.2013 92.4053 43.8453 92.0787 44.312 91.556C44.7787 91.0147 45.012 90.3707 45.012 89.624C45.012 88.8773 44.7787 88.2987 44.312 87.888C43.864 87.4587 43.22 87.1133 42.38 86.852V92.536ZM52.4709 77.5V74.588H58.2949V95H55.0749V77.5H52.4709ZM75.84 77.332H66.46V82.904C66.852 82.3813 67.4307 81.9427 68.196 81.588C68.98 81.2333 69.8107 81.056 70.688 81.056C72.256 81.056 73.5253 81.392 74.496 82.064C75.4853 82.736 76.1853 83.5853 76.596 84.612C77.0253 85.6387 77.24 86.7213 77.24 87.86C77.24 89.2413 76.9693 90.4733 76.428 91.556C75.9053 92.62 75.112 93.46 74.048 94.076C73.0027 94.692 71.7147 95 70.184 95C68.1493 95 66.516 94.496 65.284 93.488C64.052 92.48 63.3147 91.1453 63.072 89.484H66.18C66.3853 90.3613 66.8427 91.0613 67.552 91.584C68.2613 92.088 69.148 92.34 70.212 92.34C71.5373 92.34 72.5267 91.9387 73.18 91.136C73.852 90.3333 74.188 89.2693 74.188 87.944C74.188 86.6 73.852 85.5733 73.18 84.864C72.508 84.136 71.5187 83.772 70.212 83.772C69.2973 83.772 68.5227 84.0053 67.888 84.472C67.272 84.92 66.824 85.536 66.544 86.32H63.52V74.532H75.84V77.332ZM80.5628 84.528C80.5628 81.2987 81.1041 78.7787 82.1868 76.968C83.2881 75.1387 85.1735 74.224 87.8428 74.224C90.5121 74.224 92.3881 75.1387 93.4708 76.968C94.5721 78.7787 95.1228 81.2987 95.1228 84.528C95.1228 87.7947 94.5721 90.352 93.4708 92.2C92.3881 94.0293 90.5121 94.944 87.8428 94.944C85.1735 94.944 83.2881 94.0293 82.1868 92.2C81.1041 90.352 80.5628 87.7947 80.5628 84.528ZM91.9868 84.528C91.9868 83.016 91.8841 81.7373 91.6788 80.692C91.4921 79.6467 91.1001 78.7973 90.5028 78.144C89.9055 77.472 89.0188 77.136 87.8428 77.136C86.6668 77.136 85.7801 77.472 85.1828 78.144C84.5855 78.7973 84.1841 79.6467 83.9788 80.692C83.7921 81.7373 83.6988 83.016 83.6988 84.528C83.6988 86.096 83.7921 87.412 83.9788 88.476C84.1655 89.54 84.5575 90.3987 85.1548 91.052C85.7708 91.7053 86.6668 92.032 87.8428 92.032C89.0188 92.032 89.9055 91.7053 90.5028 91.052C91.1188 90.3987 91.5201 89.54 91.7068 88.476C91.8935 87.412 91.9868 86.096 91.9868 84.528ZM98.5003 84.528C98.5003 81.2987 99.0416 78.7787 100.124 76.968C101.226 75.1387 103.111 74.224 105.78 74.224C108.45 74.224 110.326 75.1387 111.408 76.968C112.51 78.7787 113.06 81.2987 113.06 84.528C113.06 87.7947 112.51 90.352 111.408 92.2C110.326 94.0293 108.45 94.944 105.78 94.944C103.111 94.944 101.226 94.0293 100.124 92.2C99.0416 90.352 98.5003 87.7947 98.5003 84.528ZM109.924 84.528C109.924 83.016 109.822 81.7373 109.616 80.692C109.43 79.6467 109.038 78.7973 108.44 78.144C107.843 77.472 106.956 77.136 105.78 77.136C104.604 77.136 103.718 77.472 103.12 78.144C102.523 78.7973 102.122 79.6467 101.916 80.692C101.73 81.7373 101.636 83.016 101.636 84.528C101.636 86.096 101.73 87.412 101.916 88.476C102.103 89.54 102.495 90.3987 103.092 91.052C103.708 91.7053 104.604 92.032 105.78 92.032C106.956 92.032 107.843 91.7053 108.44 91.052C109.056 90.3987 109.458 89.54 109.644 88.476C109.831 87.412 109.924 86.096 109.924 84.528ZM118.146 95.196C117.567 95.196 117.082 95 116.69 94.608C116.298 94.216 116.102 93.7307 116.102 93.152C116.102 92.5733 116.298 92.088 116.69 91.696C117.082 91.304 117.567 91.108 118.146 91.108C118.706 91.108 119.182 91.304 119.574 91.696C119.966 92.088 120.162 92.5733 120.162 93.152C120.162 93.7307 119.966 94.216 119.574 94.608C119.182 95 118.706 95.196 118.146 95.196ZM126.636 84.332C124.694 83.3613 123.724 81.8307 123.724 79.74C123.724 78.732 123.976 77.808 124.48 76.968C124.984 76.128 125.74 75.4653 126.748 74.98C127.756 74.476 128.988 74.224 130.444 74.224C131.881 74.224 133.104 74.476 134.112 74.98C135.138 75.4653 135.904 76.128 136.408 76.968C136.912 77.808 137.164 78.732 137.164 79.74C137.164 80.7853 136.893 81.7093 136.352 82.512C135.829 83.296 135.129 83.9027 134.252 84.332C135.316 84.724 136.156 85.368 136.772 86.264C137.388 87.1413 137.696 88.1773 137.696 89.372C137.696 90.5853 137.388 91.6587 136.772 92.592C136.156 93.5253 135.297 94.244 134.196 94.748C133.094 95.252 131.844 95.504 130.444 95.504C129.044 95.504 127.793 95.252 126.692 94.748C125.609 94.244 124.76 93.5253 124.144 92.592C123.528 91.6587 123.22 90.5853 123.22 89.372C123.22 88.1587 123.528 87.1133 124.144 86.236C124.76 85.3587 125.59 84.724 126.636 84.332ZM134.112 80.132C134.112 79.0867 133.785 78.284 133.132 77.724C132.478 77.164 131.582 76.884 130.444 76.884C129.324 76.884 128.437 77.164 127.784 77.724C127.13 78.284 126.804 79.096 126.804 80.16C126.804 81.0933 127.14 81.8587 127.812 82.456C128.502 83.0347 129.38 83.324 130.444 83.324C131.508 83.324 132.385 83.0253 133.076 82.428C133.766 81.8307 134.112 81.0653 134.112 80.132ZM130.444 85.732C129.212 85.732 128.204 86.04 127.42 86.656C126.654 87.2533 126.272 88.1213 126.272 89.26C126.272 90.324 126.645 91.192 127.392 91.864C128.138 92.5173 129.156 92.844 130.444 92.844C131.713 92.844 132.712 92.508 133.44 91.836C134.186 91.164 134.56 90.3053 134.56 89.26C134.56 88.14 134.177 87.272 133.412 86.656C132.665 86.04 131.676 85.732 130.444 85.732ZM145.023 89.456C145.21 90.3893 145.611 91.0987 146.227 91.584C146.843 92.0693 147.674 92.312 148.719 92.312C150.045 92.312 151.015 91.7893 151.631 90.744C152.247 89.6987 152.555 87.916 152.555 85.396C152.107 86.0307 151.473 86.5253 150.651 86.88C149.849 87.216 148.971 87.384 148.019 87.384C146.806 87.384 145.705 87.1413 144.715 86.656C143.726 86.152 142.942 85.4147 142.363 84.444C141.803 83.4547 141.523 82.26 141.523 80.86C141.523 78.8067 142.121 77.1733 143.315 75.96C144.529 74.728 146.19 74.112 148.299 74.112C150.838 74.112 152.639 74.9613 153.703 76.66C154.786 78.34 155.327 80.9253 155.327 84.416C155.327 86.824 155.122 88.7933 154.711 90.324C154.319 91.8547 153.629 93.012 152.639 93.796C151.65 94.58 150.278 94.972 148.523 94.972C146.526 94.972 144.986 94.4493 143.903 93.404C142.821 92.3587 142.214 91.0427 142.083 89.456H145.023ZM148.579 84.696C149.699 84.696 150.577 84.3507 151.211 83.66C151.865 82.9507 152.191 82.0173 152.191 80.86C152.191 79.572 151.846 78.5733 151.155 77.864C150.483 77.136 149.559 76.772 148.383 76.772C147.207 76.772 146.274 77.1453 145.583 77.892C144.911 78.62 144.575 79.5813 144.575 80.776C144.575 81.9147 144.902 82.8573 145.555 83.604C146.227 84.332 147.235 84.696 148.579 84.696ZM169.965 95L162.433 86.292V95H159.241V75.54H162.433V84.416L169.993 75.54H173.997L165.541 85.284L174.137 95H169.965Z" fill="white"/>
<path d="M39.688 58.154C38.6613 58.154 37.7373 57.978 36.916 57.626C36.0947 57.2593 35.4493 56.746 34.98 56.086C34.5107 55.426 34.276 54.656 34.276 53.776H36.96C37.0187 54.436 37.2753 54.9787 37.73 55.404C38.1993 55.8293 38.852 56.042 39.688 56.042C40.5533 56.042 41.228 55.8367 41.712 55.426C42.196 55.0007 42.438 54.458 42.438 53.798C42.438 53.2847 42.284 52.8667 41.976 52.544C41.6827 52.2213 41.3087 51.972 40.854 51.796C40.414 51.62 39.798 51.4293 39.006 51.224C38.0087 50.96 37.1947 50.696 36.564 50.432C35.948 50.1533 35.42 49.728 34.98 49.156C34.54 48.584 34.32 47.8213 34.32 46.868C34.32 45.988 34.54 45.218 34.98 44.558C35.42 43.898 36.036 43.392 36.828 43.04C37.62 42.688 38.5367 42.512 39.578 42.512C41.0593 42.512 42.2693 42.886 43.208 43.634C44.1613 44.3673 44.6893 45.3793 44.792 46.67H42.02C41.976 46.1127 41.712 45.636 41.228 45.24C40.744 44.844 40.106 44.646 39.314 44.646C38.5953 44.646 38.0087 44.8293 37.554 45.196C37.0993 45.5627 36.872 46.0907 36.872 46.78C36.872 47.2493 37.0113 47.638 37.29 47.946C37.5833 48.2393 37.95 48.474 38.39 48.65C38.83 48.826 39.4313 49.0167 40.194 49.222C41.206 49.5007 42.0273 49.7793 42.658 50.058C43.3033 50.3367 43.846 50.7693 44.286 51.356C44.7407 51.928 44.968 52.698 44.968 53.666C44.968 54.4433 44.7553 55.1767 44.33 55.866C43.9193 56.5553 43.3107 57.1127 42.504 57.538C41.712 57.9487 40.7733 58.154 39.688 58.154ZM47.0913 51.884C47.0913 50.6667 47.3407 49.5887 47.8393 48.65C48.3527 47.7113 49.042 46.9853 49.9073 46.472C50.7873 45.944 51.7553 45.68 52.8113 45.68C53.7647 45.68 54.5933 45.8707 55.2973 46.252C56.016 46.6187 56.588 47.0807 57.0133 47.638V45.878H59.5433V58H57.0133V56.196C56.588 56.768 56.0087 57.2447 55.2753 57.626C54.542 58.0073 53.706 58.198 52.7673 58.198C51.726 58.198 50.7727 57.934 49.9073 57.406C49.042 56.8633 48.3527 56.1153 47.8393 55.162C47.3407 54.194 47.0913 53.1013 47.0913 51.884ZM57.0133 51.928C57.0133 51.092 56.8373 50.366 56.4853 49.75C56.148 49.134 55.7007 48.6647 55.1433 48.342C54.586 48.0193 53.9847 47.858 53.3393 47.858C52.694 47.858 52.0927 48.0193 51.5353 48.342C50.978 48.65 50.5233 49.112 50.1713 49.728C49.834 50.3293 49.6653 51.048 49.6653 51.884C49.6653 52.72 49.834 53.4533 50.1713 54.084C50.5233 54.7147 50.978 55.1987 51.5353 55.536C52.1073 55.8587 52.7087 56.02 53.3393 56.02C53.9847 56.02 54.586 55.8587 55.1433 55.536C55.7007 55.2133 56.148 54.744 56.4853 54.128C56.8373 53.4973 57.0133 52.764 57.0133 51.928ZM65.3455 41.72V58H62.8375V41.72H65.3455ZM79.7483 51.642C79.7483 52.0967 79.7189 52.5073 79.6603 52.874H70.3983C70.4716 53.842 70.8309 54.6193 71.4763 55.206C72.1216 55.7927 72.9136 56.086 73.8523 56.086C75.2016 56.086 76.1549 55.5213 76.7123 54.392H79.4183C79.0516 55.5067 78.3843 56.4233 77.4163 57.142C76.4629 57.846 75.2749 58.198 73.8523 58.198C72.6936 58.198 71.6523 57.9413 70.7283 57.428C69.8189 56.9 69.1003 56.1667 68.5723 55.228C68.0589 54.2747 67.8023 53.1747 67.8023 51.928C67.8023 50.6813 68.0516 49.5887 68.5503 48.65C69.0636 47.6967 69.7749 46.9633 70.6843 46.45C71.6083 45.9367 72.6643 45.68 73.8523 45.68C74.9963 45.68 76.0156 45.9293 76.9103 46.428C77.8049 46.9267 78.5016 47.6307 79.0003 48.54C79.4989 49.4347 79.7483 50.4687 79.7483 51.642ZM77.1303 50.85C77.1156 49.926 76.7856 49.1853 76.1403 48.628C75.4949 48.0707 74.6956 47.792 73.7423 47.792C72.8769 47.792 72.1363 48.0707 71.5203 48.628C70.9043 49.1707 70.5376 49.9113 70.4203 50.85H77.1303ZM86.6164 58.198C85.6631 58.198 84.8051 58.0293 84.0424 57.692C83.2944 57.34 82.7004 56.8707 82.2604 56.284C81.8204 55.6827 81.5857 55.0153 81.5564 54.282H84.1524C84.1964 54.7953 84.4384 55.228 84.8784 55.58C85.3331 55.9173 85.8977 56.086 86.5724 56.086C87.2764 56.086 87.8191 55.954 88.2004 55.69C88.5964 55.4113 88.7944 55.0593 88.7944 54.634C88.7944 54.1793 88.5744 53.842 88.1344 53.622C87.7091 53.402 87.0271 53.16 86.0884 52.896C85.1791 52.6467 84.4384 52.4047 83.8664 52.17C83.2944 51.9353 82.7957 51.576 82.3704 51.092C81.9597 50.608 81.7544 49.97 81.7544 49.178C81.7544 48.5327 81.9451 47.946 82.3264 47.418C82.7077 46.8753 83.2504 46.45 83.9544 46.142C84.6731 45.834 85.4944 45.68 86.4184 45.68C87.7971 45.68 88.9044 46.032 89.7404 46.736C90.5911 47.4253 91.0457 48.3713 91.1044 49.574H88.5964C88.5524 49.0313 88.3324 48.5987 87.9364 48.276C87.5404 47.9533 87.0051 47.792 86.3304 47.792C85.6704 47.792 85.1644 47.9167 84.8124 48.166C84.4604 48.4153 84.2844 48.7453 84.2844 49.156C84.2844 49.4787 84.4017 49.75 84.6364 49.97C84.8711 50.19 85.1571 50.366 85.4944 50.498C85.8317 50.6153 86.3304 50.7693 86.9904 50.96C87.8704 51.1947 88.5891 51.4367 89.1464 51.686C89.7184 51.9207 90.2097 52.2727 90.6204 52.742C91.0311 53.2113 91.2437 53.8347 91.2584 54.612C91.2584 55.3013 91.0677 55.9173 90.6864 56.46C90.3051 57.0027 89.7624 57.428 89.0584 57.736C88.3691 58.044 87.5551 58.198 86.6164 58.198ZM102.191 41.72V58H99.6832V41.72H102.191ZM104.648 51.884C104.648 50.6667 104.897 49.5887 105.396 48.65C105.909 47.7113 106.599 46.9853 107.464 46.472C108.344 45.944 109.312 45.68 110.368 45.68C111.321 45.68 112.15 45.8707 112.854 46.252C113.573 46.6187 114.145 47.0807 114.57 47.638V45.878H117.1V58H114.57V56.196C114.145 56.768 113.565 57.2447 112.832 57.626C112.099 58.0073 111.263 58.198 110.324 58.198C109.283 58.198 108.329 57.934 107.464 57.406C106.599 56.8633 105.909 56.1153 105.396 55.162C104.897 54.194 104.648 53.1013 104.648 51.884ZM114.57 51.928C114.57 51.092 114.394 50.366 114.042 49.75C113.705 49.134 113.257 48.6647 112.7 48.342C112.143 48.0193 111.541 47.858 110.896 47.858C110.251 47.858 109.649 48.0193 109.092 48.342C108.535 48.65 108.08 49.112 107.728 49.728C107.391 50.3293 107.222 51.048 107.222 51.884C107.222 52.72 107.391 53.4533 107.728 54.084C108.08 54.7147 108.535 55.1987 109.092 55.536C109.664 55.8587 110.265 56.02 110.896 56.02C111.541 56.02 112.143 55.8587 112.7 55.536C113.257 55.2133 113.705 54.744 114.042 54.128C114.394 53.4973 114.57 52.764 114.57 51.928ZM124.794 58.198C123.841 58.198 122.983 58.0293 122.22 57.692C121.472 57.34 120.878 56.8707 120.438 56.284C119.998 55.6827 119.763 55.0153 119.734 54.282H122.33C122.374 54.7953 122.616 55.228 123.056 55.58C123.511 55.9173 124.075 56.086 124.75 56.086C125.454 56.086 125.997 55.954 126.378 55.69C126.774 55.4113 126.972 55.0593 126.972 54.634C126.972 54.1793 126.752 53.842 126.312 53.622C125.887 53.402 125.205 53.16 124.266 52.896C123.357 52.6467 122.616 52.4047 122.044 52.17C121.472 51.9353 120.973 51.576 120.548 51.092C120.137 50.608 119.932 49.97 119.932 49.178C119.932 48.5327 120.123 47.946 120.504 47.418C120.885 46.8753 121.428 46.45 122.132 46.142C122.851 45.834 123.672 45.68 124.596 45.68C125.975 45.68 127.082 46.032 127.918 46.736C128.769 47.4253 129.223 48.3713 129.282 49.574H126.774C126.73 49.0313 126.51 48.5987 126.114 48.276C125.718 47.9533 125.183 47.792 124.508 47.792C123.848 47.792 123.342 47.9167 122.99 48.166C122.638 48.4153 122.462 48.7453 122.462 49.156C122.462 49.4787 122.579 49.75 122.814 49.97C123.049 50.19 123.335 50.366 123.672 50.498C124.009 50.6153 124.508 50.7693 125.168 50.96C126.048 51.1947 126.767 51.4367 127.324 51.686C127.896 51.9207 128.387 52.2727 128.798 52.742C129.209 53.2113 129.421 53.8347 129.436 54.612C129.436 55.3013 129.245 55.9173 128.864 56.46C128.483 57.0027 127.94 57.428 127.236 57.736C126.547 58.044 125.733 58.198 124.794 58.198ZM135.072 47.924V54.634C135.072 55.0887 135.175 55.4187 135.38 55.624C135.6 55.8147 135.967 55.91 136.48 55.91H138.02V58H136.04C134.911 58 134.045 57.736 133.444 57.208C132.843 56.68 132.542 55.822 132.542 54.634V47.924H131.112V45.878H132.542V42.864H135.072V45.878H138.02V47.924H135.072ZM154.34 45.68C154.179 45.0053 153.886 44.4993 153.46 44.162C153.035 43.8247 152.441 43.656 151.678 43.656C150.52 43.656 149.654 44.1033 149.082 44.998C148.51 45.878 148.21 47.3447 148.18 49.398C148.562 48.7527 149.119 48.254 149.852 47.902C150.586 47.55 151.378 47.374 152.228 47.374C153.196 47.374 154.047 47.5867 154.78 48.012C155.528 48.4227 156.108 49.024 156.518 49.816C156.944 50.608 157.156 51.554 157.156 52.654C157.156 53.6807 156.951 54.5973 156.54 55.404C156.144 56.2107 155.55 56.8487 154.758 57.318C153.966 57.7727 153.013 58 151.898 58C150.388 58 149.2 57.67 148.334 57.01C147.484 56.3353 146.882 55.3893 146.53 54.172C146.193 52.9547 146.024 51.4367 146.024 49.618C146.024 44.25 147.916 41.566 151.7 41.566C153.167 41.566 154.318 41.962 155.154 42.754C156.005 43.546 156.504 44.5213 156.65 45.68H154.34ZM151.678 49.486C150.784 49.486 150.021 49.7573 149.39 50.3C148.774 50.828 148.466 51.598 148.466 52.61C148.466 53.622 148.752 54.4287 149.324 55.03C149.911 55.6167 150.725 55.91 151.766 55.91C152.69 55.91 153.416 55.624 153.944 55.052C154.487 54.48 154.758 53.7173 154.758 52.764C154.758 51.7667 154.494 50.9747 153.966 50.388C153.453 49.7867 152.69 49.486 151.678 49.486ZM180.551 45.68C181.504 45.68 182.355 45.878 183.103 46.274C183.865 46.67 184.459 47.2567 184.885 48.034C185.325 48.8113 185.545 49.75 185.545 50.85V58H183.059V51.224C183.059 50.1387 182.787 49.31 182.245 48.738C181.702 48.1513 180.961 47.858 180.023 47.858C179.084 47.858 178.336 48.1513 177.779 48.738C177.236 49.31 176.965 50.1387 176.965 51.224V58H174.479V51.224C174.479 50.1387 174.207 49.31 173.665 48.738C173.122 48.1513 172.381 47.858 171.443 47.858C170.504 47.858 169.756 48.1513 169.199 48.738C168.656 49.31 168.385 50.1387 168.385 51.224V58H165.877V45.878H168.385V47.264C168.795 46.7653 169.316 46.3767 169.947 46.098C170.577 45.8193 171.252 45.68 171.971 45.68C172.939 45.68 173.804 45.8853 174.567 46.296C175.329 46.7067 175.916 47.3007 176.327 48.078C176.693 47.3447 177.265 46.7653 178.043 46.34C178.82 45.9 179.656 45.68 180.551 45.68ZM193.994 58.198C192.85 58.198 191.816 57.9413 190.892 57.428C189.968 56.9 189.242 56.1667 188.714 55.228C188.186 54.2747 187.922 53.1747 187.922 51.928C187.922 50.696 188.193 49.6033 188.736 48.65C189.279 47.6967 190.019 46.9633 190.958 46.45C191.897 45.9367 192.945 45.68 194.104 45.68C195.263 45.68 196.311 45.9367 197.25 46.45C198.189 46.9633 198.929 47.6967 199.472 48.65C200.015 49.6033 200.286 50.696 200.286 51.928C200.286 53.16 200.007 54.2527 199.45 55.206C198.893 56.1593 198.13 56.9 197.162 57.428C196.209 57.9413 195.153 58.198 193.994 58.198ZM193.994 56.02C194.639 56.02 195.241 55.866 195.798 55.558C196.37 55.25 196.832 54.788 197.184 54.172C197.536 53.556 197.712 52.808 197.712 51.928C197.712 51.048 197.543 50.3073 197.206 49.706C196.869 49.09 196.421 48.628 195.864 48.32C195.307 48.012 194.705 47.858 194.06 47.858C193.415 47.858 192.813 48.012 192.256 48.32C191.713 48.628 191.281 49.09 190.958 49.706C190.635 50.3073 190.474 51.048 190.474 51.928C190.474 53.2333 190.804 54.2453 191.464 54.964C192.139 55.668 192.982 56.02 193.994 56.02ZM208.881 45.68C209.835 45.68 210.685 45.878 211.433 46.274C212.196 46.67 212.79 47.2567 213.215 48.034C213.641 48.8113 213.853 49.75 213.853 50.85V58H211.367V51.224C211.367 50.1387 211.096 49.31 210.553 48.738C210.011 48.1513 209.27 47.858 208.331 47.858C207.393 47.858 206.645 48.1513 206.087 48.738C205.545 49.31 205.273 50.1387 205.273 51.224V58H202.765V45.878H205.273V47.264C205.684 46.7653 206.205 46.3767 206.835 46.098C207.481 45.8193 208.163 45.68 208.881 45.68ZM219.978 47.924V54.634C219.978 55.0887 220.081 55.4187 220.286 55.624C220.506 55.8147 220.873 55.91 221.386 55.91H222.926V58H220.946C219.817 58 218.952 57.736 218.35 57.208C217.749 56.68 217.448 55.822 217.448 54.634V47.924H216.018V45.878H217.448V42.864H219.978V45.878H222.926V47.924H219.978ZM231.508 45.68C232.432 45.68 233.253 45.878 233.972 46.274C234.705 46.67 235.277 47.2567 235.688 48.034C236.113 48.8113 236.326 49.75 236.326 50.85V58H233.84V51.224C233.84 50.1387 233.569 49.31 233.026 48.738C232.483 48.1513 231.743 47.858 230.804 47.858C229.865 47.858 229.117 48.1513 228.56 48.738C228.017 49.31 227.746 50.1387 227.746 51.224V58H225.238V41.72H227.746V47.286C228.171 46.7727 228.707 46.3767 229.352 46.098C230.012 45.8193 230.731 45.68 231.508 45.68ZM243.925 58.198C242.972 58.198 242.114 58.0293 241.351 57.692C240.603 57.34 240.009 56.8707 239.569 56.284C239.129 55.6827 238.894 55.0153 238.865 54.282H241.461C241.505 54.7953 241.747 55.228 242.187 55.58C242.642 55.9173 243.206 56.086 243.881 56.086C244.585 56.086 245.128 55.954 245.509 55.69C245.905 55.4113 246.103 55.0593 246.103 54.634C246.103 54.1793 245.883 53.842 245.443 53.622C245.018 53.402 244.336 53.16 243.397 52.896C242.488 52.6467 241.747 52.4047 241.175 52.17C240.603 51.9353 240.104 51.576 239.679 51.092C239.268 50.608 239.063 49.97 239.063 49.178C239.063 48.5327 239.254 47.946 239.635 47.418C240.016 46.8753 240.559 46.45 241.263 46.142C241.982 45.834 242.803 45.68 243.727 45.68C245.106 45.68 246.213 46.032 247.049 46.736C247.9 47.4253 248.354 48.3713 248.413 49.574H245.905C245.861 49.0313 245.641 48.5987 245.245 48.276C244.849 47.9533 244.314 47.792 243.639 47.792C242.979 47.792 242.473 47.9167 242.121 48.166C241.769 48.4153 241.593 48.7453 241.593 49.156C241.593 49.4787 241.71 49.75 241.945 49.97C242.18 50.19 242.466 50.366 242.803 50.498C243.14 50.6153 243.639 50.7693 244.299 50.96C245.179 51.1947 245.898 51.4367 246.455 51.686C247.027 51.9207 247.518 52.2727 247.929 52.742C248.34 53.2113 248.552 53.8347 248.567 54.612C248.567 55.3013 248.376 55.9173 247.995 56.46C247.614 57.0027 247.071 57.428 246.367 57.736C245.678 58.044 244.864 58.198 243.925 58.198Z" fill="white"/>
<line x1="60.5" y1="135" x2="60.5" y2="395" stroke="#A0A0A0"/>
<line x1="1.5" y1="135" x2="1.49999" y2="395" stroke="#A0A0A0"/>
<line x1="119.5" y1="135" x2="119.5" y2="395" stroke="#A0A0A0"/>
<line x1="178.5" y1="135" x2="178.5" y2="395" stroke="#A0A0A0"/>
<line x1="237.5" y1="135" x2="237.5" y2="395" stroke="#A0A0A0"/>
<line x1="296.5" y1="135" x2="296.5" y2="395" stroke="#A0A0A0"/>
<defs>
<radialGradient id="paint0_radial_812_15432" cx="0" cy="0" r="1" gradientUnits="userSpaceOnUse" gradientTransform="translate(174.5 -155.5) rotate(89.6521) scale(741.014 605.048)">
<stop offset="0.467855" stop-color="#333992"/>
<stop offset="0.654155" stop-color="#8E92CC"/>
<stop offset="0.792571" stop-color="#333992"/>
</radialGradient>
</defs>
</svg>
