<svg width="54" height="54" viewBox="0 0 54 54" fill="none" xmlns="http://www.w3.org/2000/svg">
<path d="M27 54C41.9117 54 54 41.9117 54 27C54 12.0883 41.9117 0 27 0C12.0883 0 0 12.0883 0 27C0 41.9117 12.0883 54 27 54Z" fill="#E3E5E4"/>
<path d="M39.6169 21.9018L9 36L27 54C39.0982 54 49.3373 46.0427 52.7707 35.0765L39.6169 21.9018Z" fill="#929DA5"/>
<path d="M45.3971 36H32.2344V21H37.4126C38.6033 21 39.6918 21.6727 40.2244 22.7378L42.3555 27L45.0893 29.0789C46.0175 29.6515 46.5826 30.664 46.5826 31.7545V34.8145C46.5826 35.4693 46.0518 36 45.3971 36Z" fill="#333988"/>
<path d="M33 36H9V17.3029C9 16.0309 10.0311 15 11.3031 15H30.6971C31.9691 15 33.0002 16.0311 33.0002 17.3029V36H33Z" fill="#F89077"/>
<path d="M32.9982 17.3031C32.9982 16.0311 31.9671 15 30.6951 15H26.9375V36H32.9982V17.3031Z" fill="#F89077"/>
<path d="M38.6533 22.9446L40.7266 27.0909H34.7266V22.1818H37.4193C37.9418 22.1818 38.4197 22.4771 38.6533 22.9446Z" fill="#D0D5D9"/>
<path d="M16.2347 40.2347C18.5735 40.2347 20.4695 38.3388 20.4695 36C20.4695 33.6612 18.5735 31.7653 16.2347 31.7653C13.896 31.7653 12 33.6612 12 36C12 38.3388 13.896 40.2347 16.2347 40.2347Z" fill="#32373B"/>
<path d="M16.234 37.6364C17.1378 37.6364 17.8704 36.9037 17.8704 36C17.8704 35.0963 17.1378 34.3636 16.234 34.3636C15.3303 34.3636 14.5977 35.0963 14.5977 36C14.5977 36.9037 15.3303 37.6364 16.234 37.6364Z" fill="#484F54"/>
<path d="M40.2347 40.2347C42.5735 40.2347 44.4695 38.3388 44.4695 36C44.4695 33.6612 42.5735 31.7653 40.2347 31.7653C37.896 31.7653 36 33.6612 36 36C36 38.3388 37.896 40.2347 40.2347 40.2347Z" fill="#32373B"/>
<path d="M40.234 37.6364C41.1378 37.6364 41.8704 36.9037 41.8704 36C41.8704 35.0963 41.1378 34.3636 40.234 34.3636C39.3303 34.3636 38.5977 35.0963 38.5977 36C38.5977 36.9037 39.3303 37.6364 40.234 37.6364Z" fill="#484F54"/>
<path d="M21.1808 25.0909C25.097 25.0909 28.2717 21.9162 28.2717 18C28.2717 14.0838 25.097 10.9091 21.1808 10.9091C17.2646 10.9091 14.0898 14.0838 14.0898 18C14.0898 21.9162 17.2646 25.0909 21.1808 25.0909Z" fill="#333988"/>
<path d="M21.1825 23.6942C24.3273 23.6942 26.8766 21.1448 26.8766 18C26.8766 14.8552 24.3273 12.3058 21.1825 12.3058C18.0377 12.3058 15.4883 14.8552 15.4883 18C15.4883 21.1448 18.0377 23.6942 21.1825 23.6942Z" fill="#ECF0F1"/>
<path d="M23.4391 20.4629C23.2985 20.4629 23.1569 20.4165 23.0391 20.3213L20.7829 18.4947C20.6336 18.3738 20.5469 18.192 20.5469 18V14.4545C20.5469 14.1031 20.8318 13.8182 21.1832 13.8182C21.5347 13.8182 21.8196 14.1031 21.8196 14.4545V17.6964L23.8398 19.3318C24.1131 19.5531 24.1551 19.9538 23.9341 20.2269C23.8083 20.3824 23.6245 20.4629 23.4391 20.4629Z" fill="#333988"/>
</svg>
