<svg width="24" height="24" viewBox="0 0 24 24" fill="none" xmlns="http://www.w3.org/2000/svg">
<mask id="path-1-inside-1_815_15493" fill="white">
<path d="M20.6667 5.44828H15.6667V4.06897H16.3333C16.5333 4.06897 16.6667 3.93103 16.6667 3.72414V2.34483C16.6667 2.13793 16.5333 2 16.3333 2H7.66667C7.46667 2 7.33333 2.13793 7.33333 2.34483V3.72414C7.33333 3.93103 7.46667 4.06897 7.66667 4.06897H8.33333V5.44828H3.33333C2.6 5.44828 2 6.06897 2 6.82759V12C2 12.2069 2.13333 12.3448 2.33333 12.3448H3.33333V21.6552C3.33333 21.8621 3.46667 22 3.66667 22H14.6667V21.3103H4V12.3448H8.66667V11.6552H3.66667H2.66667V6.82759C2.66667 6.44828 2.96667 6.13793 3.33333 6.13793H8.66667H15.3333H20.6667C21.0333 6.13793 21.3333 6.44828 21.3333 6.82759V11.6552H20.3333H15.3333V12.3448H20V13.0345H20.6667V12.3448H21.6667C21.8667 12.3448 22 12.2069 22 12V6.82759C22 6.06897 21.4 5.44828 20.6667 5.44828ZM8 2.68966H16V3.37931H8V2.68966ZM9 5.44828V4.06897H15V5.44828H9Z"/>
</mask>
<path d="M20.6667 5.44828H15.6667V4.06897H16.3333C16.5333 4.06897 16.6667 3.93103 16.6667 3.72414V2.34483C16.6667 2.13793 16.5333 2 16.3333 2H7.66667C7.46667 2 7.33333 2.13793 7.33333 2.34483V3.72414C7.33333 3.93103 7.46667 4.06897 7.66667 4.06897H8.33333V5.44828H3.33333C2.6 5.44828 2 6.06897 2 6.82759V12C2 12.2069 2.13333 12.3448 2.33333 12.3448H3.33333V21.6552C3.33333 21.8621 3.46667 22 3.66667 22H14.6667V21.3103H4V12.3448H8.66667V11.6552H3.66667H2.66667V6.82759C2.66667 6.44828 2.96667 6.13793 3.33333 6.13793H8.66667H15.3333H20.6667C21.0333 6.13793 21.3333 6.44828 21.3333 6.82759V11.6552H20.3333H15.3333V12.3448H20V13.0345H20.6667V12.3448H21.6667C21.8667 12.3448 22 12.2069 22 12V6.82759C22 6.06897 21.4 5.44828 20.6667 5.44828ZM8 2.68966H16V3.37931H8V2.68966ZM9 5.44828V4.06897H15V5.44828H9Z" fill="#817A7A"/>
<path d="M15.6667 5.44828H14.6667V6.44828H15.6667V5.44828ZM15.6667 4.06897V3.06897H14.6667V4.06897H15.6667ZM8.33333 4.06897H9.33333V3.06897H8.33333V4.06897ZM8.33333 5.44828V6.44828H9.33333V5.44828H8.33333ZM3.33333 12.3448H4.33333V11.3448H3.33333V12.3448ZM14.6667 22V23H15.6667V22H14.6667ZM14.6667 21.3103H15.6667V20.3103H14.6667V21.3103ZM4 21.3103H3V22.3103H4V21.3103ZM4 12.3448V11.3448H3V12.3448H4ZM8.66667 12.3448V13.3448H9.66667V12.3448H8.66667ZM8.66667 11.6552H9.66667V10.6552H8.66667V11.6552ZM2.66667 11.6552H1.66667V12.6552H2.66667V11.6552ZM21.3333 11.6552V12.6552H22.3333V11.6552H21.3333ZM15.3333 11.6552V10.6552H14.3333V11.6552H15.3333ZM15.3333 12.3448H14.3333V13.3448H15.3333V12.3448ZM20 12.3448H21V11.3448H20V12.3448ZM20 13.0345H19V14.0345H20V13.0345ZM20.6667 13.0345V14.0345H21.6667V13.0345H20.6667ZM20.6667 12.3448V11.3448H19.6667V12.3448H20.6667ZM8 2.68966V1.68966H7V2.68966H8ZM16 2.68966H17V1.68966H16V2.68966ZM16 3.37931V4.37931H17V3.37931H16ZM8 3.37931H7V4.37931H8V3.37931ZM9 5.44828H8V6.44828H9V5.44828ZM9 4.06897V3.06897H8V4.06897H9ZM15 4.06897H16V3.06897H15V4.06897ZM15 5.44828V6.44828H16V5.44828H15ZM20.6667 4.44828H15.6667V6.44828H20.6667V4.44828ZM16.6667 5.44828V4.06897H14.6667V5.44828H16.6667ZM15.6667 5.06897H16.3333V3.06897H15.6667V5.06897ZM16.3333 5.06897C16.671 5.06897 17.0252 4.94722 17.294 4.66916C17.5598 4.39414 17.6667 4.04487 17.6667 3.72414H15.6667C15.6667 3.61031 15.7068 3.43344 15.856 3.27912C16.0081 3.12174 16.1957 3.06897 16.3333 3.06897V5.06897ZM17.6667 3.72414V2.34483H15.6667V3.72414H17.6667ZM17.6667 2.34483C17.6667 2.0241 17.5598 1.67482 17.294 1.39981C17.0252 1.12174 16.671 1 16.3333 1V3C16.1957 3 16.0081 2.94722 15.856 2.78985C15.7068 2.63552 15.6667 2.45866 15.6667 2.34483H17.6667ZM16.3333 1H7.66667V3H16.3333V1ZM7.66667 1C7.32902 1 6.97481 1.12174 6.70601 1.39981C6.44016 1.67482 6.33333 2.0241 6.33333 2.34483H8.33333C8.33333 2.45866 8.29317 2.63552 8.14399 2.78985C7.99186 2.94722 7.80432 3 7.66667 3V1ZM6.33333 2.34483V3.72414H8.33333V2.34483H6.33333ZM6.33333 3.72414C6.33333 4.04487 6.44016 4.39414 6.70601 4.66916C6.97481 4.94722 7.32902 5.06897 7.66667 5.06897V3.06897C7.80432 3.06897 7.99186 3.12174 8.14399 3.27912C8.29317 3.43344 8.33333 3.61031 8.33333 3.72414H6.33333ZM7.66667 5.06897H8.33333V3.06897H7.66667V5.06897ZM7.33333 4.06897V5.44828H9.33333V4.06897H7.33333ZM8.33333 4.44828H3.33333V6.44828H8.33333V4.44828ZM3.33333 4.44828C2.01603 4.44828 1 5.54891 1 6.82759H3C3 6.58902 3.18397 6.44828 3.33333 6.44828V4.44828ZM1 6.82759V12H3V6.82759H1ZM1 12C1 12.3207 1.10683 12.67 1.37268 12.945C1.64147 13.2231 1.99568 13.3448 2.33333 13.3448V11.3448C2.47098 11.3448 2.65853 11.3976 2.81066 11.555C2.95984 11.7093 3 11.8862 3 12H1ZM2.33333 13.3448H3.33333V11.3448H2.33333V13.3448ZM2.33333 12.3448V21.6552H4.33333V12.3448H2.33333ZM2.33333 21.6552C2.33333 21.9759 2.44016 22.3252 2.70601 22.6002C2.97481 22.8783 3.32902 23 3.66667 23V21C3.80432 21 3.99186 21.0528 4.14399 21.2101C4.29317 21.3645 4.33333 21.5413 4.33333 21.6552H2.33333ZM3.66667 23H14.6667V21H3.66667V23ZM15.6667 22V21.3103H13.6667V22H15.6667ZM14.6667 20.3103H4V22.3103H14.6667V20.3103ZM5 21.3103V12.3448H3V21.3103H5ZM4 13.3448H8.66667V11.3448H4V13.3448ZM9.66667 12.3448V11.6552H7.66667V12.3448H9.66667ZM8.66667 10.6552H3.66667V12.6552H8.66667V10.6552ZM3.66667 10.6552H2.66667V12.6552H3.66667V10.6552ZM3.66667 11.6552V6.82759H1.66667V11.6552H3.66667ZM3.66667 6.82759C3.66667 6.96833 3.55064 7.13793 3.33333 7.13793V5.13793C2.3827 5.13793 1.66667 5.92822 1.66667 6.82759H3.66667ZM3.33333 7.13793H8.66667V5.13793H3.33333V7.13793ZM8.66667 7.13793H15.3333V5.13793H8.66667V7.13793ZM15.3333 7.13793H20.6667V5.13793H15.3333V7.13793ZM20.6667 7.13793C20.4494 7.13793 20.3333 6.96833 20.3333 6.82759H22.3333C22.3333 5.92822 21.6173 5.13793 20.6667 5.13793V7.13793ZM20.3333 6.82759V11.6552H22.3333V6.82759H20.3333ZM21.3333 10.6552H20.3333V12.6552H21.3333V10.6552ZM20.3333 10.6552H15.3333V12.6552H20.3333V10.6552ZM14.3333 11.6552V12.3448H16.3333V11.6552H14.3333ZM15.3333 13.3448H20V11.3448H15.3333V13.3448ZM19 12.3448V13.0345H21V12.3448H19ZM20 14.0345H20.6667V12.0345H20V14.0345ZM21.6667 13.0345V12.3448H19.6667V13.0345H21.6667ZM20.6667 13.3448H21.6667V11.3448H20.6667V13.3448ZM21.6667 13.3448C22.0043 13.3448 22.3585 13.2231 22.6273 12.945C22.8932 12.67 23 12.3207 23 12H21C21 11.8862 21.0402 11.7093 21.1893 11.555C21.3415 11.3976 21.529 11.3448 21.6667 11.3448V13.3448ZM23 12V6.82759H21V12H23ZM23 6.82759C23 5.54891 21.984 4.44828 20.6667 4.44828V6.44828C20.816 6.44828 21 6.58902 21 6.82759H23ZM8 3.68966H16V1.68966H8V3.68966ZM15 2.68966V3.37931H17V2.68966H15ZM16 2.37931H8V4.37931H16V2.37931ZM9 3.37931V2.68966H7V3.37931H9ZM10 5.44828V4.06897H8V5.44828H10ZM9 5.06897H15V3.06897H9V5.06897ZM14 4.06897V5.44828H16V4.06897H14ZM15 4.44828H9V6.44828H15V4.44828Z" fill="#817A7A" mask="url(#path-1-inside-1_815_15493)"/>
<mask id="path-3-inside-2_815_15493" fill="white">
<path d="M14.332 10.6207H9.66536C9.46536 10.6207 9.33203 10.7586 9.33203 10.9655V13.0345C9.33203 13.2414 9.46536 13.3793 9.66536 13.3793H14.332C14.532 13.3793 14.6654 13.2414 14.6654 13.0345V10.9655C14.6654 10.7586 14.532 10.6207 14.332 10.6207ZM13.9987 12.6896H9.9987V11.3103H13.9987V12.6896Z"/>
</mask>
<path d="M14.332 10.6207H9.66536C9.46536 10.6207 9.33203 10.7586 9.33203 10.9655V13.0345C9.33203 13.2414 9.46536 13.3793 9.66536 13.3793H14.332C14.532 13.3793 14.6654 13.2414 14.6654 13.0345V10.9655C14.6654 10.7586 14.532 10.6207 14.332 10.6207ZM13.9987 12.6896H9.9987V11.3103H13.9987V12.6896Z" fill="#817A7A"/>
<path d="M13.9987 12.6896V13.6896H14.9987V12.6896H13.9987ZM9.9987 12.6896H8.9987V13.6896H9.9987V12.6896ZM9.9987 11.3103V10.3103H8.9987V11.3103H9.9987ZM13.9987 11.3103H14.9987V10.3103H13.9987V11.3103ZM14.332 9.62067H9.66536V11.6207H14.332V9.62067ZM9.66536 9.62067C9.32771 9.62067 8.9735 9.74241 8.70471 10.0205C8.43886 10.2955 8.33203 10.6448 8.33203 10.9655H10.332C10.332 11.0793 10.2919 11.2562 10.1427 11.4105C9.99056 11.5679 9.80301 11.6207 9.66536 11.6207V9.62067ZM8.33203 10.9655V13.0345H10.332V10.9655H8.33203ZM8.33203 13.0345C8.33203 13.3552 8.43886 13.7045 8.70471 13.9795C8.9735 14.2575 9.32771 14.3793 9.66536 14.3793V12.3793C9.80301 12.3793 9.99056 12.4321 10.1427 12.5894C10.2919 12.7438 10.332 12.9206 10.332 13.0345H8.33203ZM9.66536 14.3793H14.332V12.3793H9.66536V14.3793ZM14.332 14.3793C14.6697 14.3793 15.0239 14.2575 15.2927 13.9795C15.5585 13.7045 15.6654 13.3552 15.6654 13.0345H13.6654C13.6654 12.9206 13.7055 12.7438 13.8547 12.5894C14.0068 12.4321 14.1944 12.3793 14.332 12.3793V14.3793ZM15.6654 13.0345V10.9655H13.6654V13.0345H15.6654ZM15.6654 10.9655C15.6654 10.6448 15.5585 10.2955 15.2927 10.0205C15.0239 9.74241 14.6697 9.62067 14.332 9.62067V11.6207C14.1944 11.6207 14.0068 11.5679 13.8547 11.4105C13.7055 11.2562 13.6654 11.0793 13.6654 10.9655H15.6654ZM13.9987 11.6896H9.9987V13.6896H13.9987V11.6896ZM10.9987 12.6896V11.3103H8.9987V12.6896H10.9987ZM9.9987 12.3103H13.9987V10.3103H9.9987V12.3103ZM12.9987 11.3103V12.6896H14.9987V11.3103H12.9987Z" fill="#817A7A" mask="url(#path-3-inside-2_815_15493)"/>
<mask id="path-5-inside-3_815_15493" fill="white">
<path d="M21.6654 13.7241H15.6654C15.4654 13.7241 15.332 13.8621 15.332 14.0689V21.6552C15.332 21.8621 15.4654 22 15.6654 22H21.6654C21.8654 22 21.9987 21.8621 21.9987 21.6552V14.0689C21.9987 13.8621 21.8654 13.7241 21.6654 13.7241ZM21.332 14.4138V15.7931H15.9987V14.4138H21.332ZM15.9987 21.3103V16.4827H21.332V21.3103H15.9987Z"/>
</mask>
<path d="M21.6654 13.7241H15.6654C15.4654 13.7241 15.332 13.8621 15.332 14.0689V21.6552C15.332 21.8621 15.4654 22 15.6654 22H21.6654C21.8654 22 21.9987 21.8621 21.9987 21.6552V14.0689C21.9987 13.8621 21.8654 13.7241 21.6654 13.7241ZM21.332 14.4138V15.7931H15.9987V14.4138H21.332ZM15.9987 21.3103V16.4827H21.332V21.3103H15.9987Z" fill="#817A7A"/>
<path d="M21.332 14.4138H22.332V13.4138H21.332V14.4138ZM21.332 15.7931V16.7931H22.332V15.7931H21.332ZM15.9987 15.7931H14.9987V16.7931H15.9987V15.7931ZM15.9987 14.4138V13.4138H14.9987V14.4138H15.9987ZM15.9987 21.3103H14.9987V22.3103H15.9987V21.3103ZM15.9987 16.4827V15.4827H14.9987V16.4827H15.9987ZM21.332 16.4827H22.332V15.4827H21.332V16.4827ZM21.332 21.3103V22.3103H22.332V21.3103H21.332ZM21.6654 12.7241H15.6654V14.7241H21.6654V12.7241ZM15.6654 12.7241C15.3277 12.7241 14.9735 12.8459 14.7047 13.1239C14.4389 13.3989 14.332 13.7482 14.332 14.0689H16.332C16.332 14.1828 16.2919 14.3596 16.1427 14.514C15.9906 14.6713 15.803 14.7241 15.6654 14.7241V12.7241ZM14.332 14.0689V21.6552H16.332V14.0689H14.332ZM14.332 21.6552C14.332 21.9759 14.4389 22.3252 14.7047 22.6002C14.9735 22.8782 15.3277 23 15.6654 23V21C15.803 21 15.9906 21.0528 16.1427 21.2101C16.2919 21.3645 16.332 21.5413 16.332 21.6552H14.332ZM15.6654 23H21.6654V21H15.6654V23ZM21.6654 23C22.003 23 22.3572 22.8782 22.626 22.6002C22.8919 22.3252 22.9987 21.9759 22.9987 21.6552H20.9987C20.9987 21.5413 21.0389 21.3645 21.188 21.2101C21.3402 21.0528 21.5277 21 21.6654 21V23ZM22.9987 21.6552V14.0689H20.9987V21.6552H22.9987ZM22.9987 14.0689C22.9987 13.7482 22.8919 13.3989 22.626 13.1239C22.3572 12.8459 22.003 12.7241 21.6654 12.7241V14.7241C21.5277 14.7241 21.3402 14.6713 21.188 14.514C21.0389 14.3596 20.9987 14.1828 20.9987 14.0689H22.9987ZM20.332 14.4138V15.7931H22.332V14.4138H20.332ZM21.332 14.7931H15.9987V16.7931H21.332V14.7931ZM16.9987 15.7931V14.4138H14.9987V15.7931H16.9987ZM15.9987 15.4138H21.332V13.4138H15.9987V15.4138ZM16.9987 21.3103V16.4827H14.9987V21.3103H16.9987ZM15.9987 17.4827H21.332V15.4827H15.9987V17.4827ZM20.332 16.4827V21.3103H22.332V16.4827H20.332ZM21.332 20.3103H15.9987V22.3103H21.332V20.3103Z" fill="#817A7A" mask="url(#path-5-inside-3_815_15493)"/>
<mask id="path-7-inside-4_815_15493" fill="white">
<path d="M17.6667 17.1724H17V17.8621H17.6667V17.1724Z"/>
</mask>
<path d="M17.6667 17.1724H17V17.8621H17.6667V17.1724Z" fill="#817A7A"/>
<path d="M17 17.1724V16.1724H16V17.1724H17ZM17.6667 17.1724H18.6667V16.1724H17.6667V17.1724ZM17.6667 17.8621V18.8621H18.6667V17.8621H17.6667ZM17 17.8621H16V18.8621H17V17.8621ZM17 18.1724H17.6667V16.1724H17V18.1724ZM16.6667 17.1724V17.8621H18.6667V17.1724H16.6667ZM17.6667 16.8621H17V18.8621H17.6667V16.8621ZM18 17.8621V17.1724H16V17.8621H18Z" fill="#817A7A" mask="url(#path-7-inside-4_815_15493)"/>
<mask id="path-9-inside-5_815_15493" fill="white">
<path d="M18.9987 17.1724H18.332V17.8621H18.9987V17.1724Z"/>
</mask>
<path d="M18.9987 17.1724H18.332V17.8621H18.9987V17.1724Z" fill="#817A7A"/>
<path d="M18.332 17.1724V16.1724H17.332V17.1724H18.332ZM18.9987 17.1724H19.9987V16.1724H18.9987V17.1724ZM18.9987 17.8621V18.8621H19.9987V17.8621H18.9987ZM18.332 17.8621H17.332V18.8621H18.332V17.8621ZM18.332 18.1724H18.9987V16.1724H18.332V18.1724ZM17.9987 17.1724V17.8621H19.9987V17.1724H17.9987ZM18.9987 16.8621H18.332V18.8621H18.9987V16.8621ZM19.332 17.8621V17.1724H17.332V17.8621H19.332Z" fill="#817A7A" mask="url(#path-9-inside-5_815_15493)"/>
<mask id="path-11-inside-6_815_15493" fill="white">
<path d="M20.3346 17.1724H19.668V17.8621H20.3346V17.1724Z"/>
</mask>
<path d="M20.3346 17.1724H19.668V17.8621H20.3346V17.1724Z" fill="#817A7A"/>
<path d="M19.668 17.1724V16.1724H18.668V17.1724H19.668ZM20.3346 17.1724H21.3346V16.1724H20.3346V17.1724ZM20.3346 17.8621V18.8621H21.3346V17.8621H20.3346ZM19.668 17.8621H18.668V18.8621H19.668V17.8621ZM19.668 18.1724H20.3346V16.1724H19.668V18.1724ZM19.3346 17.1724V17.8621H21.3346V17.1724H19.3346ZM20.3346 16.8621H19.668V18.8621H20.3346V16.8621ZM20.668 17.8621V17.1724H18.668V17.8621H20.668Z" fill="#817A7A" mask="url(#path-11-inside-6_815_15493)"/>
<mask id="path-13-inside-7_815_15493" fill="white">
<path d="M17.6667 18.5517H17V19.2414H17.6667V18.5517Z"/>
</mask>
<path d="M17.6667 18.5517H17V19.2414H17.6667V18.5517Z" fill="#817A7A"/>
<path d="M17 18.5517V17.5517H16V18.5517H17ZM17.6667 18.5517H18.6667V17.5517H17.6667V18.5517ZM17.6667 19.2414V20.2414H18.6667V19.2414H17.6667ZM17 19.2414H16V20.2414H17V19.2414ZM17 19.5517H17.6667V17.5517H17V19.5517ZM16.6667 18.5517V19.2414H18.6667V18.5517H16.6667ZM17.6667 18.2414H17V20.2414H17.6667V18.2414ZM18 19.2414V18.5517H16V19.2414H18Z" fill="#817A7A" mask="url(#path-13-inside-7_815_15493)"/>
<mask id="path-15-inside-8_815_15493" fill="white">
<path d="M18.9987 18.5517H18.332V19.2414H18.9987V18.5517Z"/>
</mask>
<path d="M18.9987 18.5517H18.332V19.2414H18.9987V18.5517Z" fill="#817A7A"/>
<path d="M18.332 18.5517V17.5517H17.332V18.5517H18.332ZM18.9987 18.5517H19.9987V17.5517H18.9987V18.5517ZM18.9987 19.2414V20.2414H19.9987V19.2414H18.9987ZM18.332 19.2414H17.332V20.2414H18.332V19.2414ZM18.332 19.5517H18.9987V17.5517H18.332V19.5517ZM17.9987 18.5517V19.2414H19.9987V18.5517H17.9987ZM18.9987 18.2414H18.332V20.2414H18.9987V18.2414ZM19.332 19.2414V18.5517H17.332V19.2414H19.332Z" fill="#817A7A" mask="url(#path-15-inside-8_815_15493)"/>
<mask id="path-17-inside-9_815_15493" fill="white">
<path d="M20.3346 18.5517H19.668V19.2414H20.3346V18.5517Z"/>
</mask>
<path d="M20.3346 18.5517H19.668V19.2414H20.3346V18.5517Z" fill="#817A7A"/>
<path d="M19.668 18.5517V17.5517H18.668V18.5517H19.668ZM20.3346 18.5517H21.3346V17.5517H20.3346V18.5517ZM20.3346 19.2414V20.2414H21.3346V19.2414H20.3346ZM19.668 19.2414H18.668V20.2414H19.668V19.2414ZM19.668 19.5517H20.3346V17.5517H19.668V19.5517ZM19.3346 18.5517V19.2414H21.3346V18.5517H19.3346ZM20.3346 18.2414H19.668V20.2414H20.3346V18.2414ZM20.668 19.2414V18.5517H18.668V19.2414H20.668Z" fill="#817A7A" mask="url(#path-17-inside-9_815_15493)"/>
<mask id="path-19-inside-10_815_15493" fill="white">
<path d="M17.6667 19.931H17V20.6207H17.6667V19.931Z"/>
</mask>
<path d="M17.6667 19.931H17V20.6207H17.6667V19.931Z" fill="#817A7A"/>
<path d="M17 19.931V18.931H16V19.931H17ZM17.6667 19.931H18.6667V18.931H17.6667V19.931ZM17.6667 20.6207V21.6207H18.6667V20.6207H17.6667ZM17 20.6207H16V21.6207H17V20.6207ZM17 20.931H17.6667V18.931H17V20.931ZM16.6667 19.931V20.6207H18.6667V19.931H16.6667ZM17.6667 19.6207H17V21.6207H17.6667V19.6207ZM18 20.6207V19.931H16V20.6207H18Z" fill="#817A7A" mask="url(#path-19-inside-10_815_15493)"/>
<mask id="path-21-inside-11_815_15493" fill="white">
<path d="M18.9987 19.931H18.332V20.6207H18.9987V19.931Z"/>
</mask>
<path d="M18.9987 19.931H18.332V20.6207H18.9987V19.931Z" fill="#817A7A"/>
<path d="M18.332 19.931V18.931H17.332V19.931H18.332ZM18.9987 19.931H19.9987V18.931H18.9987V19.931ZM18.9987 20.6207V21.6207H19.9987V20.6207H18.9987ZM18.332 20.6207H17.332V21.6207H18.332V20.6207ZM18.332 20.931H18.9987V18.931H18.332V20.931ZM17.9987 19.931V20.6207H19.9987V19.931H17.9987ZM18.9987 19.6207H18.332V21.6207H18.9987V19.6207ZM19.332 20.6207V19.931H17.332V20.6207H19.332Z" fill="#817A7A" mask="url(#path-21-inside-11_815_15493)"/>
<mask id="path-23-inside-12_815_15493" fill="white">
<path d="M20.3346 19.931H19.668V20.6207H20.3346V19.931Z"/>
</mask>
<path d="M20.3346 19.931H19.668V20.6207H20.3346V19.931Z" fill="#817A7A"/>
<path d="M19.668 19.931V18.931H18.668V19.931H19.668ZM20.3346 19.931H21.3346V18.931H20.3346V19.931ZM20.3346 20.6207V21.6207H21.3346V20.6207H20.3346ZM19.668 20.6207H18.668V21.6207H19.668V20.6207ZM19.668 20.931H20.3346V18.931H19.668V20.931ZM19.3346 19.931V20.6207H21.3346V19.931H19.3346ZM20.3346 19.6207H19.668V21.6207H20.3346V19.6207ZM20.668 20.6207V19.931H18.668V20.6207H20.668Z" fill="#817A7A" mask="url(#path-23-inside-12_815_15493)"/>
<mask id="path-25-inside-13_815_15493" fill="white">
<path d="M16.9987 14.7586H16.332V15.4483H16.9987V14.7586Z"/>
</mask>
<path d="M16.9987 14.7586H16.332V15.4483H16.9987V14.7586Z" fill="#817A7A"/>
<path d="M16.332 14.7586V13.7586H15.332V14.7586H16.332ZM16.9987 14.7586H17.9987V13.7586H16.9987V14.7586ZM16.9987 15.4483V16.4483H17.9987V15.4483H16.9987ZM16.332 15.4483H15.332V16.4483H16.332V15.4483ZM16.332 15.7586H16.9987V13.7586H16.332V15.7586ZM15.9987 14.7586V15.4483H17.9987V14.7586H15.9987ZM16.9987 14.4483H16.332V16.4483H16.9987V14.4483ZM17.332 15.4483V14.7586H15.332V15.4483H17.332Z" fill="#817A7A" mask="url(#path-25-inside-13_815_15493)"/>
<mask id="path-27-inside-14_815_15493" fill="white">
<path d="M17.9987 14.7586H17.332V15.4483H17.9987V14.7586Z"/>
</mask>
<path d="M17.9987 14.7586H17.332V15.4483H17.9987V14.7586Z" fill="#817A7A"/>
<path d="M17.332 14.7586V13.7586H16.332V14.7586H17.332ZM17.9987 14.7586H18.9987V13.7586H17.9987V14.7586ZM17.9987 15.4483V16.4483H18.9987V15.4483H17.9987ZM17.332 15.4483H16.332V16.4483H17.332V15.4483ZM17.332 15.7586H17.9987V13.7586H17.332V15.7586ZM16.9987 14.7586V15.4483H18.9987V14.7586H16.9987ZM17.9987 14.4483H17.332V16.4483H17.9987V14.4483ZM18.332 15.4483V14.7586H16.332V15.4483H18.332Z" fill="#817A7A" mask="url(#path-27-inside-14_815_15493)"/>
<mask id="path-29-inside-15_815_15493" fill="white">
<path d="M18.9987 14.7586H18.332V15.4483H18.9987V14.7586Z"/>
</mask>
<path d="M18.9987 14.7586H18.332V15.4483H18.9987V14.7586Z" fill="#817A7A"/>
<path d="M18.332 14.7586V13.7586H17.332V14.7586H18.332ZM18.9987 14.7586H19.9987V13.7586H18.9987V14.7586ZM18.9987 15.4483V16.4483H19.9987V15.4483H18.9987ZM18.332 15.4483H17.332V16.4483H18.332V15.4483ZM18.332 15.7586H18.9987V13.7586H18.332V15.7586ZM17.9987 14.7586V15.4483H19.9987V14.7586H17.9987ZM18.9987 14.4483H18.332V16.4483H18.9987V14.4483ZM19.332 15.4483V14.7586H17.332V15.4483H19.332Z" fill="#817A7A" mask="url(#path-29-inside-15_815_15493)"/>
<mask id="path-31-inside-16_815_15493" fill="white">
<path d="M19.9987 14.7586H19.332V15.4483H19.9987V14.7586Z"/>
</mask>
<path d="M19.9987 14.7586H19.332V15.4483H19.9987V14.7586Z" fill="#817A7A"/>
<path d="M19.332 14.7586V13.7586H18.332V14.7586H19.332ZM19.9987 14.7586H20.9987V13.7586H19.9987V14.7586ZM19.9987 15.4483V16.4483H20.9987V15.4483H19.9987ZM19.332 15.4483H18.332V16.4483H19.332V15.4483ZM19.332 15.7586H19.9987V13.7586H19.332V15.7586ZM18.9987 14.7586V15.4483H20.9987V14.7586H18.9987ZM19.9987 14.4483H19.332V16.4483H19.9987V14.4483ZM20.332 15.4483V14.7586H18.332V15.4483H20.332Z" fill="#817A7A" mask="url(#path-31-inside-16_815_15493)"/>
<mask id="path-33-inside-17_815_15493" fill="white">
<path d="M20.9987 14.7586H20.332V15.4483H20.9987V14.7586Z"/>
</mask>
<path d="M20.9987 14.7586H20.332V15.4483H20.9987V14.7586Z" fill="#817A7A"/>
<path d="M20.332 14.7586V13.7586H19.332V14.7586H20.332ZM20.9987 14.7586H21.9987V13.7586H20.9987V14.7586ZM20.9987 15.4483V16.4483H21.9987V15.4483H20.9987ZM20.332 15.4483H19.332V16.4483H20.332V15.4483ZM20.332 15.7586H20.9987V13.7586H20.332V15.7586ZM19.9987 14.7586V15.4483H21.9987V14.7586H19.9987ZM20.9987 14.4483H20.332V16.4483H20.9987V14.4483ZM21.332 15.4483V14.7586H19.332V15.4483H21.332Z" fill="#817A7A" mask="url(#path-33-inside-17_815_15493)"/>
</svg>
