<svg width="24" height="24" viewBox="0 0 24 24" fill="none" xmlns="http://www.w3.org/2000/svg">
<mask id="path-1-inside-1_812_15340" fill="white">
<path d="M2 22H12.3125V12H2V22ZM2.62496 12.625H11.6875V21.375H2.62496V12.625Z"/>
</mask>
<path d="M2 22H12.3125V12H2V22ZM2.62496 12.625H11.6875V21.375H2.62496V12.625Z" fill="#817A7A"/>
<path d="M12.3125 22V23H13.3125V22H12.3125ZM12.3125 12H13.3125V11H12.3125V12ZM2 12V11H1V12H2ZM2.62496 12.625V11.625H1.62496V12.625H2.62496ZM11.6875 12.625H12.6875V11.625H11.6875V12.625ZM11.6875 21.375V22.375H12.6875V21.375H11.6875ZM2.62496 21.375H1.62496V22.375H2.62496V21.375ZM2 23H12.3125V21H2V23ZM13.3125 22V12H11.3125V22H13.3125ZM12.3125 11H2V13H12.3125V11ZM1 12V22H3V12H1ZM2.62496 13.625H11.6875V11.625H2.62496V13.625ZM10.6875 12.625V21.375H12.6875V12.625H10.6875ZM11.6875 20.375H2.62496V22.375H11.6875V20.375ZM3.62496 21.375V12.625H1.62496V21.375H3.62496Z" fill="#817A7A" mask="url(#path-1-inside-1_812_15340)"/>
<mask id="path-3-inside-2_812_15340" fill="white">
<path d="M5.125 8.56232V11.6875H5.74996V9.18763L14.8074 9.19263L14.8123 18.25H12.625V18.875H15.4377L15.432 8.56794L5.125 8.56232Z"/>
</mask>
<path d="M5.125 8.56232V11.6875H5.74996V9.18763L14.8074 9.19263L14.8123 18.25H12.625V18.875H15.4377L15.432 8.56794L5.125 8.56232Z" fill="#817A7A"/>
<path d="M5.125 8.56232L5.12555 7.56232L4.125 7.56177V8.56232H5.125ZM5.125 11.6875H4.125V12.6875H5.125V11.6875ZM5.74996 11.6875V12.6875H6.74996V11.6875H5.74996ZM5.74996 9.18763L5.75052 8.18763L4.74996 8.18708V9.18763H5.74996ZM14.8074 9.19263L15.8074 9.19209L15.8068 8.19318L14.8079 8.19263L14.8074 9.19263ZM14.8123 18.25V19.25H15.8128L15.8123 18.2494L14.8123 18.25ZM12.625 18.25V17.25H11.625V18.25H12.625ZM12.625 18.875H11.625V19.875H12.625V18.875ZM15.4377 18.875V19.875H16.4382L16.4377 18.8744L15.4377 18.875ZM15.432 8.56794L16.432 8.5674L16.4315 7.56849L15.4326 7.56794L15.432 8.56794ZM4.125 8.56232V11.6875H6.125V8.56232H4.125ZM5.125 12.6875H5.74996V10.6875H5.125V12.6875ZM6.74996 11.6875V9.18763H4.74996V11.6875H6.74996ZM5.74941 10.1876L14.8068 10.1926L14.8079 8.19263L5.75052 8.18763L5.74941 10.1876ZM13.8074 9.19317L13.8123 18.2505L15.8123 18.2494L15.8074 9.19209L13.8074 9.19317ZM14.8123 17.25H12.625V19.25H14.8123V17.25ZM11.625 18.25V18.875H13.625V18.25H11.625ZM12.625 19.875H15.4377V17.875H12.625V19.875ZM16.4377 18.8744L16.432 8.5674L14.432 8.56849L14.4377 18.8755L16.4377 18.8744ZM15.4326 7.56794L5.12555 7.56232L5.12445 9.56232L15.4315 9.56794L15.4326 7.56794Z" fill="#817A7A" mask="url(#path-3-inside-2_812_15340)"/>
<mask id="path-5-inside-3_812_15340" fill="white">
<path d="M8.5625 8.25H9.18746V5.75H17.9375V14.8125H15.75V15.4375H18.5625V5.125H8.5625V8.25Z"/>
</mask>
<path d="M8.5625 8.25H9.18746V5.75H17.9375V14.8125H15.75V15.4375H18.5625V5.125H8.5625V8.25Z" fill="#817A7A"/>
<path d="M8.5625 8.25H7.5625V9.25H8.5625V8.25ZM9.18746 8.25V9.25H10.1875V8.25H9.18746ZM9.18746 5.75V4.75H8.18746V5.75H9.18746ZM17.9375 5.75H18.9375V4.75H17.9375V5.75ZM17.9375 14.8125V15.8125H18.9375V14.8125H17.9375ZM15.75 14.8125V13.8125H14.75V14.8125H15.75ZM15.75 15.4375H14.75V16.4375H15.75V15.4375ZM18.5625 15.4375V16.4375H19.5625V15.4375H18.5625ZM18.5625 5.125H19.5625V4.125H18.5625V5.125ZM8.5625 5.125V4.125H7.5625V5.125H8.5625ZM8.5625 9.25H9.18746V7.25H8.5625V9.25ZM10.1875 8.25V5.75H8.18746V8.25H10.1875ZM9.18746 6.75H17.9375V4.75H9.18746V6.75ZM16.9375 5.75V14.8125H18.9375V5.75H16.9375ZM17.9375 13.8125H15.75V15.8125H17.9375V13.8125ZM14.75 14.8125V15.4375H16.75V14.8125H14.75ZM15.75 16.4375H18.5625V14.4375H15.75V16.4375ZM19.5625 15.4375V5.125H17.5625V15.4375H19.5625ZM18.5625 4.125H8.5625V6.125H18.5625V4.125ZM7.5625 5.125V8.25H9.5625V5.125H7.5625Z" fill="#817A7A" mask="url(#path-5-inside-3_812_15340)"/>
<mask id="path-7-inside-4_812_15340" fill="white">
<path d="M11.6875 2V4.8125H12.3125V2.62504H21.375V11.6875H18.875V12.3125H22V2H11.6875Z"/>
</mask>
<path d="M11.6875 2V4.8125H12.3125V2.62504H21.375V11.6875H18.875V12.3125H22V2H11.6875Z" fill="#817A7A"/>
<path d="M11.6875 2V1H10.6875V2H11.6875ZM11.6875 4.8125H10.6875V5.8125H11.6875V4.8125ZM12.3125 4.8125V5.8125H13.3125V4.8125H12.3125ZM12.3125 2.62504V1.62504H11.3125V2.62504H12.3125ZM21.375 2.62504H22.375V1.62504H21.375V2.62504ZM21.375 11.6875V12.6875H22.375V11.6875H21.375ZM18.875 11.6875V10.6875H17.875V11.6875H18.875ZM18.875 12.3125H17.875V13.3125H18.875V12.3125ZM22 12.3125V13.3125H23V12.3125H22ZM22 2H23V1H22V2ZM10.6875 2V4.8125H12.6875V2H10.6875ZM11.6875 5.8125H12.3125V3.8125H11.6875V5.8125ZM13.3125 4.8125V2.62504H11.3125V4.8125H13.3125ZM12.3125 3.62504H21.375V1.62504H12.3125V3.62504ZM20.375 2.62504V11.6875H22.375V2.62504H20.375ZM21.375 10.6875H18.875V12.6875H21.375V10.6875ZM17.875 11.6875V12.3125H19.875V11.6875H17.875ZM18.875 13.3125H22V11.3125H18.875V13.3125ZM23 12.3125V2H21V12.3125H23ZM22 1H11.6875V3H22V1Z" fill="#817A7A" mask="url(#path-7-inside-4_812_15340)"/>
</svg>
