<svg width="24" height="24" viewBox="0 0 24 24" fill="none" xmlns="http://www.w3.org/2000/svg">
<path d="M16.9999 12.5263V4.10526C16.9999 3.54691 16.7365 3.01143 16.2677 2.61662C15.7989 2.2218 15.163 2 14.4999 2H12M12 2H4.49999C3.83695 2 3.20107 2.2218 2.73223 2.61662C2.26339 3.01143 2 3.54691 2 4.10526V16.7368C2 17.2952 2.26339 17.8307 2.73223 18.2255C3.20107 18.6203 3.83695 18.8421 4.49999 18.8421H13.25M12 2V13.0526M6.99998 6.21053V9.36842" stroke="#817A7A" stroke-linecap="round" stroke-linejoin="round"/>
<path d="M21.9997 22V14.5263C21.9995 13.5585 21.7728 12.6002 21.3327 11.7062C20.8926 10.8122 20.2477 9.99992 19.4347 9.31582L16.9972 7.26318V14.1969C16.9972 15.1337 15.651 15.6042 14.8635 14.9411L13.2448 13.579C12.6198 13.0527 11.1185 12.7369 10.1173 13.579C9.11729 14.4211 9.49228 15.6842 10.1173 16.2106L16.996 22" stroke="#817A7A" stroke-linecap="round" stroke-linejoin="round"/>
</svg>
